<svg width="50" height="80" viewBox="0 0 50 80" fill="none" xmlns="http://www.w3.org/2000/svg">
<g clip-path="url(#clip0_19_119)">
<path fill-rule="evenodd" clip-rule="evenodd" d="M45.1109 50.5549L24.8889 56L4.66654 50.5549L0 0H49.7779L45.1109 50.5549Z" fill="#2062AF"/>
<path fill-rule="evenodd" clip-rule="evenodd" d="M24.8885 4.09485V51.6572L24.9344 51.6696L41.2991 47.2632L45.0766 4.09485H24.8885Z" fill="#3C9CD7"/>
<path fill-rule="evenodd" clip-rule="evenodd" d="M24.8708 16.7357L10.397 22.7635L10.877 28.7316L24.8708 22.7484L39.7562 16.3841L40.3735 10.2791L24.8708 16.7357Z" fill="white"/>
<mask id="mask0_19_119" style="mask-type:luminance" maskUnits="userSpaceOnUse" x="10" y="16" width="15" height="13">
<path fill-rule="evenodd" clip-rule="evenodd" d="M10.3718 16.7104H24.8959V28.7567H10.3718V16.7104Z" fill="url(#paint0_linear_19_119)"/>
</mask>
<g mask="url(#mask0_19_119)">
<path fill-rule="evenodd" clip-rule="evenodd" d="M10.3971 22.7635L10.8771 28.7315L24.8707 22.7484V16.7357L10.3971 22.7635Z" fill="url(#paint1_linear_19_119)"/>
</g>
<mask id="mask1_19_119" style="mask-type:luminance" maskUnits="userSpaceOnUse" x="24" y="10" width="17" height="13">
<path fill-rule="evenodd" clip-rule="evenodd" d="M24.8456 10.254H40.3987V22.7736H24.8456V10.254Z" fill="url(#paint2_linear_19_119)"/>
</mask>
<g mask="url(#mask1_19_119)">
<path fill-rule="evenodd" clip-rule="evenodd" d="M40.3736 10.2792L24.8709 16.7357V22.7484L39.7564 16.384L40.3736 10.2792Z" fill="url(#paint3_linear_19_119)"/>
</g>
<path fill-rule="evenodd" clip-rule="evenodd" d="M10.4192 22.7635L10.8993 28.7316L32.3708 28.8L31.8905 36.7573L24.8252 38.7464L18.0333 37.0315L17.6217 32.0924H11.3109L12.1342 41.6274L24.8938 45.4002L37.5842 41.6958L39.2306 22.7635H10.4192Z" fill="url(#paint4_linear_19_119)"/>
<path fill-rule="evenodd" clip-rule="evenodd" d="M24.8707 22.7635H10.3972L10.8772 28.7316L24.8707 28.7763V22.7635ZM24.8707 38.7273L24.8022 38.7464L18.0113 37.0315L17.5997 32.0924H11.2891L12.1121 41.6274L24.8707 45.4002V38.7273Z" fill="black" fill-opacity="0.05098"/>
<path fill-rule="evenodd" clip-rule="evenodd" d="M9.09369 10.2792H40.3735L39.7562 16.3842H9.84818L9.09369 10.2792Z" fill="url(#paint5_linear_19_119)"/>
<path fill-rule="evenodd" clip-rule="evenodd" d="M24.8708 10.2792H9.09369L9.84818 16.3842H24.8708V10.2792Z" fill="black" fill-opacity="0.05098"/>
</g>
<path d="M18.9366 65H17.1752C17.0711 64.4934 16.8888 64.0483 16.6284 63.6648C16.3727 63.2812 16.0602 62.9593 15.6909 62.6989C15.3263 62.4337 14.9215 62.2348 14.4764 62.1023C14.0313 61.9697 13.5673 61.9034 13.0843 61.9034C12.2037 61.9034 11.4058 62.1259 10.6909 62.571C9.98065 63.0161 9.41483 63.6719 8.99343 64.5384C8.57676 65.4048 8.36843 66.4678 8.36843 67.7273C8.36843 68.9867 8.57676 70.0497 8.99343 70.9162C9.41483 71.7827 9.98065 72.4384 10.6909 72.8835C11.4058 73.3286 12.2037 73.5511 13.0843 73.5511C13.5673 73.5511 14.0313 73.4848 14.4764 73.3523C14.9215 73.2197 15.3263 73.0232 15.6909 72.7628C16.0602 72.4976 16.3727 72.1733 16.6284 71.7898C16.8888 71.4015 17.0711 70.9564 17.1752 70.4545H18.9366C18.804 71.1979 18.5626 71.8632 18.2122 72.4503C17.8618 73.0374 17.4262 73.5369 16.9054 73.9489C16.3845 74.3561 15.7998 74.6662 15.1511 74.8793C14.5072 75.0923 13.8182 75.1989 13.0843 75.1989C11.8438 75.1989 10.7406 74.8958 9.77468 74.2898C8.80877 73.6837 8.04883 72.822 7.49485 71.7045C6.94087 70.5871 6.66388 69.2614 6.66388 67.7273C6.66388 66.1932 6.94087 64.8674 7.49485 63.75C8.04883 62.6326 8.80877 61.7708 9.77468 61.1648C10.7406 60.5587 11.8438 60.2557 13.0843 60.2557C13.8182 60.2557 14.5072 60.3622 15.1511 60.5753C15.7998 60.7884 16.3845 61.1009 16.9054 61.5128C17.4262 61.92 17.8618 62.4171 18.2122 63.0043C18.5626 63.5866 18.804 64.2519 18.9366 65ZM29.7374 64.0909C29.6522 63.3712 29.3065 62.8125 28.7005 62.4148C28.0944 62.017 27.351 61.8182 26.4703 61.8182C25.8264 61.8182 25.263 61.9223 24.78 62.1307C24.3018 62.339 23.9277 62.6255 23.6578 62.9901C23.3927 63.3546 23.2601 63.7689 23.2601 64.233C23.2601 64.6212 23.3525 64.955 23.5371 65.2344C23.7265 65.509 23.968 65.7386 24.2615 65.9233C24.5551 66.1032 24.8629 66.2524 25.1848 66.3707C25.5068 66.4844 25.8027 66.5767 26.0726 66.6477L27.5499 67.0455C27.9287 67.1449 28.3501 67.2822 28.8141 67.4574C29.2828 67.6326 29.7303 67.8717 30.1564 68.1747C30.5873 68.473 30.9424 68.8565 31.2218 69.3253C31.5011 69.794 31.6408 70.3693 31.6408 71.0511C31.6408 71.8371 31.4348 72.5473 31.0229 73.1818C30.6157 73.8163 30.0191 74.3205 29.2331 74.6946C28.4519 75.0687 27.5025 75.2557 26.3851 75.2557C25.3435 75.2557 24.4415 75.0876 23.6792 74.7514C22.9216 74.4152 22.325 73.9465 21.8894 73.3452C21.4585 72.7438 21.2147 72.0455 21.1578 71.25H22.976C23.0234 71.7992 23.208 72.2538 23.53 72.6136C23.8567 72.9687 24.2686 73.2339 24.7658 73.4091C25.2677 73.5795 25.8075 73.6648 26.3851 73.6648C27.0575 73.6648 27.6612 73.5559 28.1962 73.3381C28.7312 73.1155 29.155 72.8078 29.4675 72.4148C29.78 72.017 29.9363 71.553 29.9363 71.0227C29.9363 70.5398 29.8013 70.1468 29.5314 69.8438C29.2615 69.5407 28.9064 69.2945 28.4661 69.1051C28.0257 68.9157 27.5499 68.75 27.0385 68.608L25.2488 68.0966C24.1124 67.7699 23.2128 67.3035 22.5499 66.6974C21.887 66.0914 21.5556 65.2983 21.5556 64.3182C21.5556 63.5038 21.7757 62.7936 22.2161 62.1875C22.6612 61.5767 23.2578 61.1032 24.0059 60.767C24.7587 60.4261 25.5991 60.2557 26.5272 60.2557C27.4647 60.2557 28.298 60.4238 29.0272 60.7599C29.7563 61.0914 30.334 61.5459 30.7601 62.1236C31.191 62.7012 31.4183 63.357 31.4419 64.0909H29.7374ZM42.4913 64.0909C42.4061 63.3712 42.0604 62.8125 41.4544 62.4148C40.8483 62.017 40.1049 61.8182 39.2243 61.8182C38.5803 61.8182 38.0169 61.9223 37.5339 62.1307C37.0557 62.339 36.6816 62.6255 36.4118 62.9901C36.1466 63.3546 36.014 63.7689 36.014 64.233C36.014 64.6212 36.1064 64.955 36.291 65.2344C36.4804 65.509 36.7219 65.7386 37.0154 65.9233C37.309 66.1032 37.6168 66.2524 37.9387 66.3707C38.2607 66.4844 38.5566 66.5767 38.8265 66.6477L40.3038 67.0455C40.6826 67.1449 41.104 67.2822 41.568 67.4574C42.0368 67.6326 42.4842 67.8717 42.9103 68.1747C43.3412 68.473 43.6963 68.8565 43.9757 69.3253C44.255 69.794 44.3947 70.3693 44.3947 71.0511C44.3947 71.8371 44.1887 72.5473 43.7768 73.1818C43.3696 73.8163 42.773 74.3205 41.987 74.6946C41.2058 75.0687 40.2565 75.2557 39.139 75.2557C38.0974 75.2557 37.1954 75.0876 36.4331 74.7514C35.6755 74.4152 35.0789 73.9465 34.6433 73.3452C34.2124 72.7438 33.9686 72.0455 33.9118 71.25H35.7299C35.7773 71.7992 35.9619 72.2538 36.2839 72.6136C36.6106 72.9687 37.0225 73.2339 37.5197 73.4091C38.0216 73.5795 38.5614 73.6648 39.139 73.6648C39.8114 73.6648 40.4151 73.5559 40.9501 73.3381C41.4851 73.1155 41.9089 72.8078 42.2214 72.4148C42.5339 72.017 42.6902 71.553 42.6902 71.0227C42.6902 70.5398 42.5552 70.1468 42.2853 69.8438C42.0154 69.5407 41.6603 69.2945 41.22 69.1051C40.7797 68.9157 40.3038 68.75 39.7924 68.608L38.0027 68.0966C36.8663 67.7699 35.9667 67.3035 35.3038 66.6974C34.6409 66.0914 34.3095 65.2983 34.3095 64.3182C34.3095 63.5038 34.5297 62.7936 34.97 62.1875C35.4151 61.5767 36.0117 61.1032 36.7598 60.767C37.5126 60.4261 38.353 60.2557 39.2811 60.2557C40.2186 60.2557 41.0519 60.4238 41.7811 60.7599C42.5102 61.0914 43.0879 61.5459 43.514 62.1236C43.9449 62.7012 44.1722 63.357 44.1958 64.0909H42.4913Z" fill="white"/>
<defs>
<linearGradient id="paint0_linear_19_119" x1="17.6338" y1="16.7356" x2="17.6338" y2="28.7315" gradientUnits="userSpaceOnUse">
<stop stop-color="white" stop-opacity="0"/>
<stop offset="0.388" stop-color="white"/>
<stop offset="1" stop-color="white" stop-opacity="0.831"/>
</linearGradient>
<linearGradient id="paint1_linear_19_119" x1="17.6339" y1="16.7356" x2="17.6339" y2="28.7315" gradientUnits="userSpaceOnUse">
<stop stop-color="#D1D3D4"/>
<stop offset="0.388" stop-color="#D1D3D4"/>
<stop offset="1" stop-color="#D1D3D4"/>
</linearGradient>
<linearGradient id="paint2_linear_19_119" x1="32.6221" y1="10.2792" x2="32.6221" y2="22.7484" gradientUnits="userSpaceOnUse">
<stop stop-color="white" stop-opacity="0"/>
<stop offset="0.388" stop-color="white"/>
<stop offset="1" stop-color="white" stop-opacity="0.831"/>
</linearGradient>
<linearGradient id="paint3_linear_19_119" x1="32.6222" y1="10.2792" x2="32.6222" y2="22.7484" gradientUnits="userSpaceOnUse">
<stop stop-color="#D1D3D4"/>
<stop offset="0.388" stop-color="#D1D3D4"/>
<stop offset="1" stop-color="#D1D3D4"/>
</linearGradient>
<linearGradient id="paint4_linear_19_119" x1="10.4193" y1="34.0819" x2="39.2306" y2="34.0819" gradientUnits="userSpaceOnUse">
<stop stop-color="#E8E7E5"/>
<stop offset="1" stop-color="white"/>
</linearGradient>
<linearGradient id="paint5_linear_19_119" x1="9.09364" y1="13.3317" x2="40.3735" y2="13.3317" gradientUnits="userSpaceOnUse">
<stop stop-color="#E8E7E5"/>
<stop offset="1" stop-color="white"/>
</linearGradient>
<clipPath id="clip0_19_119">
<rect width="49.7779" height="56" fill="white"/>
</clipPath>
</defs>
</svg>
