<svg width="99" height="53" viewBox="0 0 99 53" fill="none" xmlns="http://www.w3.org/2000/svg">
<g clip-path="url(#clip0_19_150)">
<path d="M73.9859 28.248C72.1676 28.7102 71.0429 28.2682 70.0341 26.7533L62.8579 16.8249L61.8205 15.4502L53.4401 26.7862C52.4826 28.1501 51.4783 28.7432 49.6912 28.2607L60.4225 13.8554L50.4316 0.843138C52.1497 0.509106 53.337 0.678934 54.3912 2.21788L61.8344 12.2699L69.3323 2.27261C70.2928 0.908744 71.3256 0.39064 73.0501 0.892999L69.1763 6.02906L63.9278 12.863C63.3029 13.6439 63.3887 14.1785 63.9638 14.9324L73.9859 28.248ZM24.0127 13.6147L24.8904 9.29702C27.2803 0.752414 37.0745 -2.79822 43.8289 2.48143C47.7762 5.58668 48.7573 9.97933 48.562 14.8998H26.312C25.9779 23.7567 32.3527 29.102 40.4796 26.375C43.3303 25.4175 45.0095 23.185 45.85 20.3924C46.2766 18.9929 46.9822 18.774 48.2977 19.174C47.6263 22.6669 46.1109 25.5847 42.9086 27.4108C38.1242 30.1442 31.2943 29.2602 27.7021 25.4614C25.5618 23.257 24.6778 20.4644 24.2812 17.4776C24.2186 16.9839 24.0937 16.5137 24 16.0406C24.0082 15.2324 24.0127 14.4245 24.0127 13.6162V13.6147ZM26.3525 13.0212H46.4592C46.328 6.6169 42.3402 2.06792 36.89 2.02931C30.9074 1.98244 26.6115 6.42307 26.3521 13.0212H26.3525Z" fill="#F7DF1E"/>
</g>
<path d="M2.1598 48V33.4545H10.9382V35.017H3.92116V39.9318H10.4837V41.4943H3.92116V46.4375H11.0518V48H2.1598ZM15.1357 37.0909L17.7493 41.5511L20.3629 37.0909H22.2947L18.772 42.5455L22.2947 48H20.3629L17.7493 43.767L15.1357 48H13.2038L16.6697 42.5455L13.2038 37.0909H15.1357ZM24.6864 52.0909V37.0909H26.3058V38.8239H26.5046C26.6277 38.6345 26.7982 38.393 27.016 38.0994C27.2385 37.8011 27.5558 37.536 27.9677 37.304C28.3844 37.0672 28.9478 36.9489 29.658 36.9489C30.5766 36.9489 31.3862 37.1785 32.087 37.6378C32.7878 38.0971 33.3346 38.7481 33.7276 39.5909C34.1206 40.4337 34.3171 41.428 34.3171 42.5739C34.3171 43.7292 34.1206 44.7306 33.7276 45.5781C33.3346 46.4209 32.7901 47.0743 32.0941 47.5384C31.3981 47.9976 30.5955 48.2273 29.6864 48.2273C28.9857 48.2273 28.4246 48.1113 28.0032 47.8793C27.5818 47.6425 27.2575 47.375 27.0302 47.0767C26.8029 46.7737 26.6277 46.5227 26.5046 46.3239H26.3626V52.0909H24.6864ZM26.3342 42.5455C26.3342 43.3693 26.4549 44.0961 26.6964 44.7259C26.9379 45.3509 27.2906 45.8409 27.7546 46.196C28.2186 46.5464 28.7868 46.7216 29.4592 46.7216C30.1599 46.7216 30.7447 46.5369 31.2134 46.1676C31.6869 45.7936 32.042 45.2917 32.2788 44.6619C32.5202 44.0275 32.641 43.322 32.641 42.5455C32.641 41.7784 32.5226 41.0871 32.2859 40.4716C32.0539 39.8513 31.7011 39.3613 31.2276 39.0014C30.7589 38.6368 30.1694 38.4545 29.4592 38.4545C28.7773 38.4545 28.2044 38.6274 27.7404 38.973C27.2764 39.3139 26.926 39.7921 26.6893 40.4077C26.4525 41.0185 26.3342 41.7311 26.3342 42.5455ZM36.8739 48V37.0909H38.4933V38.7386H38.6069C38.8058 38.1989 39.1656 37.7609 39.6864 37.4247C40.2073 37.0885 40.7944 36.9205 41.4478 36.9205C41.5709 36.9205 41.7248 36.9228 41.9094 36.9276C42.0941 36.9323 42.2338 36.9394 42.3285 36.9489V38.6534C42.2717 38.6392 42.1415 38.6179 41.9379 38.5895C41.739 38.5563 41.5283 38.5398 41.3058 38.5398C40.7755 38.5398 40.302 38.651 39.8853 38.8736C39.4734 39.0914 39.1467 39.3944 38.9052 39.7827C38.6684 40.1662 38.5501 40.6042 38.5501 41.0966V48H36.8739ZM48.5572 48.2273C47.506 48.2273 46.5993 47.9953 45.837 47.5312C45.0794 47.0625 44.4947 46.4091 44.0827 45.571C43.6755 44.7282 43.4719 43.7481 43.4719 42.6307C43.4719 41.5133 43.6755 40.5284 44.0827 39.6761C44.4947 38.8191 45.0676 38.1515 45.8015 37.6733C46.5401 37.1903 47.4019 36.9489 48.3867 36.9489C48.9549 36.9489 49.516 37.0436 50.07 37.233C50.6239 37.4223 51.1282 37.7301 51.5827 38.1562C52.0373 38.5777 52.3995 39.1364 52.6694 39.8324C52.9393 40.5284 53.0742 41.3854 53.0742 42.4034V43.1136H44.6651V41.6648H51.3697C51.3697 41.0492 51.2466 40.5 51.0004 40.017C50.7589 39.5341 50.4132 39.1529 49.9634 38.8736C49.5183 38.5942 48.9928 38.4545 48.3867 38.4545C47.7191 38.4545 47.1415 38.6203 46.6538 38.9517C46.1708 39.2784 45.7991 39.7045 45.5387 40.2301C45.2783 40.7557 45.1481 41.3191 45.1481 41.9205V42.8864C45.1481 43.7102 45.2901 44.4086 45.5742 44.9815C45.863 45.5497 46.2631 45.983 46.7745 46.2812C47.2859 46.5748 47.8801 46.7216 48.5572 46.7216C48.9975 46.7216 49.3952 46.66 49.7504 46.5369C50.1102 46.4091 50.4203 46.2197 50.6808 45.9688C50.9412 45.7131 51.1424 45.3958 51.2844 45.017L52.9038 45.4716C52.7333 46.0208 52.4469 46.5038 52.0444 46.9205C51.6419 47.3324 51.1448 47.6544 50.5529 47.8864C49.9611 48.1136 49.2958 48.2273 48.5572 48.2273ZM63.3512 39.5341L61.8455 39.9602C61.7508 39.7093 61.6112 39.4654 61.4265 39.2287C61.2466 38.9872 61.0004 38.7884 60.6879 38.6321C60.3754 38.4759 59.9753 38.3977 59.4876 38.3977C58.82 38.3977 58.2636 38.5516 57.8185 38.8594C57.3782 39.1624 57.158 39.5483 57.158 40.017C57.158 40.4337 57.3095 40.7628 57.6126 41.0043C57.9156 41.2457 58.3891 41.447 59.033 41.608L60.6523 42.0057C61.6277 42.2424 62.3545 42.6046 62.8327 43.0923C63.311 43.5753 63.5501 44.1979 63.5501 44.9602C63.5501 45.5852 63.3701 46.1439 63.0103 46.6364C62.6552 47.1288 62.158 47.517 61.5188 47.8011C60.8796 48.0852 60.1362 48.2273 59.2887 48.2273C58.176 48.2273 57.2551 47.9858 56.5259 47.5028C55.7968 47.0199 55.3351 46.3144 55.141 45.3864L56.7319 44.9886C56.8834 45.5758 57.1699 46.0161 57.5913 46.3097C58.0174 46.6032 58.5737 46.75 59.2603 46.75C60.0415 46.75 60.6618 46.5843 61.1211 46.2528C61.5851 45.9167 61.8171 45.5142 61.8171 45.0455C61.8171 44.6667 61.6845 44.3494 61.4194 44.0938C61.1542 43.8333 60.747 43.6392 60.1978 43.5114L58.3796 43.0852C57.3806 42.8485 56.6467 42.4815 56.1779 41.9844C55.7139 41.4825 55.4819 40.8551 55.4819 40.1023C55.4819 39.4867 55.6547 38.9422 56.0004 38.4688C56.3507 37.9953 56.8266 37.6236 57.4279 37.3537C58.034 37.0838 58.7205 36.9489 59.4876 36.9489C60.5671 36.9489 61.4147 37.1856 62.0302 37.6591C62.6504 38.1326 63.0908 38.7576 63.3512 39.5341ZM73.8004 39.5341L72.2947 39.9602C72.2 39.7093 72.0604 39.4654 71.8757 39.2287C71.6958 38.9872 71.4496 38.7884 71.1371 38.6321C70.8246 38.4759 70.4245 38.3977 69.9368 38.3977C69.2692 38.3977 68.7128 38.5516 68.2678 38.8594C67.8274 39.1624 67.6072 39.5483 67.6072 40.017C67.6072 40.4337 67.7588 40.7628 68.0618 41.0043C68.3648 41.2457 68.8383 41.447 69.4822 41.608L71.1016 42.0057C72.0769 42.2424 72.8037 42.6046 73.282 43.0923C73.7602 43.5753 73.9993 44.1979 73.9993 44.9602C73.9993 45.5852 73.8194 46.1439 73.4595 46.6364C73.1044 47.1288 72.6072 47.517 71.968 47.8011C71.3288 48.0852 70.5855 48.2273 69.7379 48.2273C68.6252 48.2273 67.7043 47.9858 66.9751 47.5028C66.246 47.0199 65.7843 46.3144 65.5902 45.3864L67.1811 44.9886C67.3326 45.5758 67.6191 46.0161 68.0405 46.3097C68.4666 46.6032 69.023 46.75 69.7095 46.75C70.4908 46.75 71.111 46.5843 71.5703 46.2528C72.0343 45.9167 72.2663 45.5142 72.2663 45.0455C72.2663 44.6667 72.1338 44.3494 71.8686 44.0938C71.6035 43.8333 71.1963 43.6392 70.647 43.5114L68.8288 43.0852C67.8298 42.8485 67.0959 42.4815 66.6271 41.9844C66.1631 41.4825 65.9311 40.8551 65.9311 40.1023C65.9311 39.4867 66.1039 38.9422 66.4496 38.4688C66.8 37.9953 67.2758 37.6236 67.8771 37.3537C68.4832 37.0838 69.1697 36.9489 69.9368 36.9489C71.0163 36.9489 71.8639 37.1856 72.4794 37.6591C73.0997 38.1326 73.54 38.7576 73.8004 39.5341ZM82.3178 33.4545H84.0792V43.8523C84.0792 44.7803 83.9087 45.5687 83.5678 46.2173C83.2269 46.866 82.7463 47.3584 82.1261 47.6946C81.5058 48.0308 80.7743 48.1989 79.9315 48.1989C79.136 48.1989 78.4281 48.0545 77.8079 47.7656C77.1876 47.4721 76.6999 47.0554 76.3448 46.5156C75.9897 45.9759 75.8121 45.3343 75.8121 44.5909H77.5451C77.5451 45.0028 77.6469 45.3627 77.8505 45.6705C78.0588 45.9735 78.3429 46.2102 78.7028 46.3807C79.0626 46.5511 79.4722 46.6364 79.9315 46.6364C80.4381 46.6364 80.869 46.5298 81.2241 46.3168C81.5792 46.1037 81.8491 45.7912 82.0337 45.3793C82.2231 44.9626 82.3178 44.4536 82.3178 43.8523V33.4545ZM95.5636 37.0909C95.4783 36.3712 95.1327 35.8125 94.5266 35.4148C93.9206 35.017 93.1772 34.8182 92.2965 34.8182C91.6526 34.8182 91.0891 34.9223 90.6062 35.1307C90.128 35.339 89.7539 35.6255 89.484 35.9901C89.2189 36.3546 89.0863 36.7689 89.0863 37.233C89.0863 37.6212 89.1786 37.955 89.3633 38.2344C89.5527 38.509 89.7942 38.7386 90.0877 38.9233C90.3813 39.1032 90.689 39.2524 91.011 39.3707C91.333 39.4844 91.6289 39.5767 91.8988 39.6477L93.3761 40.0455C93.7549 40.1449 94.1763 40.2822 94.6403 40.4574C95.109 40.6326 95.5565 40.8717 95.9826 41.1747C96.4135 41.473 96.7686 41.8565 97.0479 42.3253C97.3273 42.794 97.467 43.3693 97.467 44.0511C97.467 44.8371 97.261 45.5473 96.8491 46.1818C96.4419 46.8163 95.8453 47.3205 95.0593 47.6946C94.2781 48.0687 93.3287 48.2557 92.2113 48.2557C91.1696 48.2557 90.2676 48.0876 89.5053 47.7514C88.7478 47.4152 88.1512 46.9465 87.7156 46.3452C87.2847 45.7438 87.0408 45.0455 86.984 44.25H88.8022C88.8496 44.7992 89.0342 45.2538 89.3562 45.6136C89.6829 45.9687 90.0948 46.2339 90.592 46.4091C91.0939 46.5795 91.6336 46.6648 92.2113 46.6648C92.8836 46.6648 93.4873 46.5559 94.0224 46.3381C94.5574 46.1155 94.9812 45.8078 95.2937 45.4148C95.6062 45.017 95.7624 44.553 95.7624 44.0227C95.7624 43.5398 95.6275 43.1468 95.3576 42.8438C95.0877 42.5407 94.7326 42.2945 94.2923 42.1051C93.8519 41.9157 93.3761 41.75 92.8647 41.608L91.0749 41.0966C89.9386 40.7699 89.0389 40.3035 88.3761 39.6974C87.7132 39.0914 87.3817 38.2983 87.3817 37.3182C87.3817 36.5038 87.6019 35.7936 88.0423 35.1875C88.4873 34.5767 89.0839 34.1032 89.832 33.767C90.5849 33.4261 91.4253 33.2557 92.3533 33.2557C93.2908 33.2557 94.1242 33.4238 94.8533 33.7599C95.5825 34.0914 96.1602 34.5459 96.5863 35.1236C97.0172 35.7012 97.2444 36.357 97.2681 37.0909H95.5636Z" fill="white"/>
<defs>
<clipPath id="clip0_19_150">
<rect width="49.9859" height="29" fill="white" transform="translate(24)"/>
</clipPath>
</defs>
</svg>
