<svg width="58" height="99" viewBox="0 0 58 99" fill="none" xmlns="http://www.w3.org/2000/svg">
<path d="M8 62.5C8 55.5965 13.5965 50 20.5 50H33V62.5C33 69.4035 27.4035 75 20.5 75C13.5965 75 8 69.4035 8 62.5Z" fill="#24CB71"/>
<path d="M33 0V25H45.5C52.4035 25 58 19.4035 58 12.5C58 5.5965 52.4035 0 45.5 0H33Z" fill="#FF7237"/>
<path d="M45.3959 50C52.2994 50 57.8959 44.4036 57.8959 37.5C57.8959 30.5964 52.2994 25 45.3959 25C38.4923 25 32.8959 30.5964 32.8959 37.5C32.8959 44.4036 38.4923 50 45.3959 50Z" fill="#00B6FF"/>
<path d="M8 12.5C8 19.4035 13.5965 25 20.5 25H33V0H20.5C13.5965 0 8 5.5965 8 12.5Z" fill="#FF3737"/>
<path d="M8 37.5C8 44.4035 13.5965 50 20.5 50H33V25H20.5C13.5965 25 8 30.5965 8 37.5Z" fill="#874FFF"/>
<path d="M2.09925 94V79.4545H10.8208V81.017H3.86062V85.9318H10.1674V87.4943H3.86062V94H2.09925ZM13.6103 94V83.0909H15.2864V94H13.6103ZM14.4625 81.2727C14.1358 81.2727 13.8541 81.1615 13.6174 80.9389C13.3854 80.7164 13.2694 80.4489 13.2694 80.1364C13.2694 79.8239 13.3854 79.5563 13.6174 79.3338C13.8541 79.1113 14.1358 79 14.4625 79C14.7892 79 15.0686 79.1113 15.3006 79.3338C15.5373 79.5563 15.6557 79.8239 15.6557 80.1364C15.6557 80.4489 15.5373 80.7164 15.3006 80.9389C15.0686 81.1615 14.7892 81.2727 14.4625 81.2727ZM22.7598 98.3182C21.9501 98.3182 21.2541 98.214 20.6717 98.0057C20.0893 97.8021 19.604 97.5322 19.2157 97.196C18.8322 96.8646 18.5268 96.5095 18.2995 96.1307L19.6348 95.1932C19.7863 95.392 19.978 95.6193 20.21 95.875C20.4421 96.1354 20.7593 96.3603 21.1618 96.5497C21.569 96.7438 22.1016 96.8409 22.7598 96.8409C23.6404 96.8409 24.3672 96.6278 24.9402 96.2017C25.5131 95.7756 25.7995 95.108 25.7995 94.1989V91.983H25.6575C25.5344 92.1818 25.3592 92.428 25.1319 92.7216C24.9094 93.0104 24.5874 93.2685 24.166 93.4957C23.7493 93.7183 23.1859 93.8295 22.4757 93.8295C21.595 93.8295 20.8043 93.6212 20.1035 93.2045C19.4075 92.7879 18.8559 92.1818 18.4487 91.3864C18.0462 90.5909 17.845 89.625 17.845 88.4886C17.845 87.3712 18.0415 86.3982 18.4345 85.5696C18.8275 84.7363 19.3743 84.0923 20.0751 83.6378C20.7759 83.1785 21.5855 82.9489 22.5041 82.9489C23.2143 82.9489 23.7778 83.0672 24.1944 83.304C24.6158 83.536 24.9378 83.8011 25.1603 84.0994C25.3876 84.393 25.5628 84.6345 25.6859 84.8239H25.8564V83.0909H27.4757V94.3125C27.4757 95.25 27.2626 96.0123 26.8365 96.5994C26.4151 97.1913 25.8469 97.6245 25.1319 97.8991C24.4217 98.1785 23.631 98.3182 22.7598 98.3182ZM22.7029 92.3239C23.3753 92.3239 23.9435 92.17 24.4075 91.8622C24.8715 91.5545 25.2243 91.1117 25.4657 90.5341C25.7072 89.9564 25.8279 89.2652 25.8279 88.4602C25.8279 87.6742 25.7096 86.9806 25.4728 86.3793C25.2361 85.7779 24.8857 85.3068 24.4217 84.9659C23.9577 84.625 23.3848 84.4545 22.7029 84.4545C21.9927 84.4545 21.4009 84.6345 20.9274 84.9943C20.4586 85.3542 20.1059 85.8371 19.8691 86.4432C19.6371 87.0492 19.5211 87.7216 19.5211 88.4602C19.5211 89.2178 19.6395 89.8878 19.8762 90.4702C20.1177 91.0478 20.4728 91.5024 20.9416 91.8338C21.4151 92.1605 22.0022 92.3239 22.7029 92.3239ZM30.5439 94V83.0909H32.1632V84.7955H32.3052C32.5325 84.2131 32.8994 83.7609 33.4061 83.4389C33.9127 83.1122 34.5211 82.9489 35.2314 82.9489C35.9511 82.9489 36.55 83.1122 37.0282 83.4389C37.5112 83.7609 37.8876 84.2131 38.1575 84.7955H38.2711C38.5505 84.232 38.9695 83.7846 39.5282 83.4531C40.0869 83.117 40.7569 82.9489 41.5382 82.9489C42.5136 82.9489 43.3114 83.2543 43.9316 83.8651C44.5519 84.4711 44.862 85.4157 44.862 86.6989V94H43.1859V86.6989C43.1859 85.8939 42.9657 85.3187 42.5254 84.973C42.085 84.6274 41.5666 84.4545 40.97 84.4545C40.2029 84.4545 39.6087 84.6866 39.1873 85.1506C38.7659 85.6098 38.5552 86.1922 38.5552 86.8977V94H36.8507V86.5284C36.8507 85.9081 36.6494 85.4086 36.247 85.0298C35.8445 84.6463 35.3261 84.4545 34.6916 84.4545C34.256 84.4545 33.8488 84.5705 33.47 84.8026C33.0959 85.0346 32.7929 85.3565 32.5609 85.7685C32.3336 86.1757 32.22 86.6468 32.22 87.1818V94H30.5439ZM51.1369 94.2557C50.4456 94.2557 49.8182 94.1255 49.2548 93.8651C48.6913 93.5999 48.2439 93.2188 47.9125 92.7216C47.581 92.2197 47.4153 91.6136 47.4153 90.9034C47.4153 90.2784 47.5384 89.7718 47.7846 89.3835C48.0308 88.9905 48.3599 88.6828 48.7718 88.4602C49.1838 88.2377 49.6383 88.072 50.1355 87.9631C50.6374 87.8494 51.1416 87.7595 51.6483 87.6932C52.3111 87.608 52.8485 87.544 53.2605 87.5014C53.6771 87.4541 53.9802 87.3759 54.1696 87.267C54.3637 87.1581 54.4608 86.9687 54.4608 86.6989V86.642C54.4608 85.9413 54.269 85.3968 53.8855 85.0085C53.5067 84.6203 52.9314 84.4261 52.1596 84.4261C51.3594 84.4261 50.7321 84.6013 50.2775 84.9517C49.823 85.3021 49.5034 85.6761 49.3187 86.0739L47.7278 85.5057C48.0119 84.8428 48.3907 84.3267 48.8642 83.9574C49.3424 83.5833 49.8632 83.3229 50.4267 83.1761C50.9949 83.0246 51.5536 82.9489 52.1028 82.9489C52.4532 82.9489 52.8556 82.9915 53.3102 83.0767C53.7695 83.1572 54.2122 83.3253 54.6383 83.581C55.0692 83.8366 55.4267 84.2225 55.7108 84.7386C55.9949 85.2547 56.1369 85.946 56.1369 86.8125V94H54.4608V92.5227H54.3755C54.2619 92.7595 54.0725 93.0128 53.8074 93.2827C53.5422 93.5526 53.1895 93.7822 52.7491 93.9716C52.3088 94.161 51.7714 94.2557 51.1369 94.2557ZM51.3926 92.75C52.0555 92.75 52.6142 92.6198 53.0687 92.3594C53.528 92.099 53.8736 91.7628 54.1056 91.3509C54.3424 90.9389 54.4608 90.5057 54.4608 90.0511V88.517C54.3897 88.6023 54.2335 88.6804 53.992 88.7514C53.7553 88.8177 53.4806 88.8769 53.1681 88.929C52.8604 88.9763 52.5597 89.0189 52.2662 89.0568C51.9773 89.09 51.743 89.1184 51.563 89.142C51.1274 89.1989 50.7202 89.2912 50.3414 89.419C49.9674 89.5421 49.6644 89.7292 49.4324 89.9801C49.2051 90.2263 49.0914 90.5625 49.0914 90.9886C49.0914 91.571 49.3069 92.0114 49.7377 92.3097C50.1734 92.6032 50.725 92.75 51.3926 92.75Z" fill="white"/>
</svg>
