<svg width="50" height="78" viewBox="0 0 50 78" fill="none" xmlns="http://www.w3.org/2000/svg">
<g clip-path="url(#clip0_19_192)">
<path d="M49.056 22.772L27.2257 0.944046C25.9684 -0.31338 23.9298 -0.31338 22.6725 0.944046L18.1396 5.47729L23.8892 11.2273C25.2279 10.7756 26.7578 11.0767 27.8239 12.1429C28.894 13.2131 29.1951 14.7595 28.7313 16.1023L34.2733 21.6448C35.616 21.1809 37.1623 21.482 38.2324 22.5522C39.7298 24.0498 39.7298 26.4751 38.2324 27.9685C36.735 29.4661 34.3099 29.4661 32.8125 27.9685C31.6854 26.8413 31.4087 25.1892 31.9783 23.8015L26.8107 18.6335V32.2373C27.1769 32.4163 27.5187 32.6605 27.8239 32.9616C29.3213 34.4591 29.3213 36.8845 27.8239 38.382C26.3265 39.8795 23.9014 39.8795 22.408 38.382C20.9106 36.8845 20.9106 34.4591 22.408 32.9616C22.7783 32.5913 23.2056 32.3146 23.6613 32.1274V18.3975C23.2056 18.2103 22.7783 17.9335 22.408 17.5632C21.2728 16.432 21.0002 14.7676 21.582 13.3759L15.9098 7.70322L0.944 22.6743C-0.313324 23.9318 -0.313324 25.9705 0.944 27.2279L22.7742 49.0599C24.0316 50.3174 26.0701 50.3174 27.3275 49.0599L49.056 27.3337C50.3133 26.0722 50.3133 24.0335 49.056 22.772Z" fill="#F05133"/>
</g>
<path d="M22.9252 63C22.769 62.5218 22.563 62.0933 22.3074 61.7145C22.0564 61.331 21.7557 61.0043 21.4054 60.7344C21.0597 60.4645 20.6667 60.2585 20.2264 60.1165C19.786 59.9744 19.3031 59.9034 18.7775 59.9034C17.9158 59.9034 17.1322 60.1259 16.4267 60.571C15.7212 61.0161 15.1601 61.6719 14.7434 62.5384C14.3268 63.4048 14.1184 64.4678 14.1184 65.7273C14.1184 66.9867 14.3291 68.0497 14.7505 68.9162C15.1719 69.7827 15.7425 70.4384 16.4622 70.8835C17.1819 71.3286 17.9915 71.5511 18.8912 71.5511C19.7245 71.5511 20.4584 71.3736 21.0929 71.0185C21.7321 70.6586 22.2292 70.152 22.5843 69.4986C22.9442 68.8404 23.1241 68.0663 23.1241 67.1761L23.6639 67.2898H19.2889V65.7273H24.8287V67.2898C24.8287 68.4877 24.573 69.5294 24.0616 70.4148C23.555 71.3002 22.8542 71.9867 21.9593 72.4744C21.0692 72.9574 20.0465 73.1989 18.8912 73.1989C17.6033 73.1989 16.4717 72.8958 15.4963 72.2898C14.5256 71.6837 13.7681 70.822 13.2235 69.7045C12.6838 68.5871 12.4139 67.2614 12.4139 65.7273C12.4139 64.5767 12.5678 63.5421 12.8755 62.6236C13.188 61.7003 13.6284 60.9143 14.1966 60.2656C14.7647 59.617 15.4371 59.1198 16.2136 58.7741C16.9901 58.4285 17.8448 58.2557 18.7775 58.2557C19.5446 58.2557 20.2595 58.3717 20.9224 58.6037C21.59 58.831 22.1842 59.1553 22.7051 59.5767C23.2306 59.9934 23.6686 60.4929 24.019 61.0753C24.3694 61.6529 24.6109 62.2945 24.7434 63H22.9252ZM28.3017 73V62.0909H29.9778V73H28.3017ZM29.1539 60.2727C28.8272 60.2727 28.5455 60.1615 28.3088 59.9389C28.0768 59.7164 27.9608 59.4489 27.9608 59.1364C27.9608 58.8239 28.0768 58.5563 28.3088 58.3338C28.5455 58.1113 28.8272 58 29.1539 58C29.4806 58 29.76 58.1113 29.992 58.3338C30.2288 58.5563 30.3471 58.8239 30.3471 59.1364C30.3471 59.4489 30.2288 59.7164 29.992 59.9389C29.76 60.1615 29.4806 60.2727 29.1539 60.2727ZM37.7921 62.0909V63.5114H32.1387V62.0909H37.7921ZM33.7864 59.4773H35.4625V69.875C35.4625 70.3485 35.5312 70.7036 35.6685 70.9403C35.8105 71.1723 35.9905 71.3286 36.2083 71.4091C36.4308 71.4848 36.6652 71.5227 36.9114 71.5227C37.0961 71.5227 37.2476 71.5133 37.3659 71.4943C37.4843 71.4706 37.579 71.4517 37.65 71.4375L37.9909 72.9432C37.8773 72.9858 37.7187 73.0284 37.5151 73.071C37.3115 73.1184 37.0534 73.142 36.7409 73.142C36.2675 73.142 35.8034 73.0402 35.3489 72.8366C34.8991 72.633 34.525 72.3229 34.2267 71.9062C33.9332 71.4896 33.7864 70.964 33.7864 70.3295V59.4773Z" fill="white"/>
<defs>
<clipPath id="clip0_19_192">
<rect width="50" height="50" fill="white"/>
</clipPath>
</defs>
</svg>
