<svg width="67" height="74" viewBox="0 0 67 74" fill="none" xmlns="http://www.w3.org/2000/svg">
<g clip-path="url(#clip0_19_197)">
<path fill-rule="evenodd" clip-rule="evenodd" d="M33.9991 0.622939C20.1948 0.622939 9 11.8158 9 25.6219C9 36.6682 16.1623 46.0358 26.0958 49.343C27.3461 49.5746 27.8056 48.7995 27.8056 48.1388C27.8056 47.5427 27.7807 45.5736 27.7705 43.4863C20.8149 44.9987 19.3487 40.5354 19.3487 40.5354C18.2118 37.6453 16.573 36.8767 16.573 36.8767C14.3048 35.3236 16.7455 35.3578 16.7455 35.3578C19.2554 35.5332 20.5768 37.9323 20.5768 37.9323C22.808 41.7543 26.427 40.6479 27.8527 40.0103C28.0778 38.3946 28.7238 37.291 29.4398 36.6663C23.8866 36.0361 18.0494 33.8916 18.0494 24.3116C18.0494 21.583 19.0275 19.3518 20.6248 17.6022C20.3646 16.9711 19.5083 14.4299 20.8656 10.9871C20.8656 10.9871 22.9648 10.3144 27.7429 13.5496C29.736 12.9968 31.874 12.7182 33.9973 12.709C36.1223 12.7182 38.264 12.9959 40.2599 13.5496C45.0315 10.3163 47.1288 10.9871 47.1288 10.9871C48.4881 14.4308 47.6355 16.9739 47.3752 17.6023C48.9781 19.3518 49.9479 21.583 49.9479 24.3116C49.9479 33.9137 44.0977 36.0249 38.5325 36.6441C39.4295 37.4192 40.2304 38.9408 40.2304 41.2717C40.2304 44.6148 40.2018 47.3092 40.2018 48.1314C40.2018 48.7967 40.6521 49.5746 41.9199 49.3309C51.8477 46.022 59.0009 36.6533 59.0009 25.6136C59.0009 11.8093 47.8081 0.614502 34.0009 0.614502L33.9991 0.622861L33.9991 0.622939Z" fill="white"/>
</g>
<path d="M11.8842 59C11.728 58.5218 11.522 58.0933 11.2663 57.7145C11.0154 57.331 10.7147 57.0043 10.3643 56.7344C10.0187 56.4645 9.62571 56.2585 9.18537 56.1165C8.74503 55.9744 8.26207 55.9034 7.73651 55.9034C6.87476 55.9034 6.09115 56.1259 5.38565 56.571C4.68016 57.0161 4.11908 57.6719 3.70241 58.5384C3.28575 59.4048 3.07741 60.4678 3.07741 61.7273C3.07741 62.9867 3.28812 64.0497 3.70952 64.9162C4.13092 65.7827 4.70147 66.4384 5.42116 66.8835C6.14086 67.3286 6.95052 67.5511 7.85014 67.5511C8.68348 67.5511 9.41738 67.3736 10.0518 67.0185C10.6911 66.6586 11.1882 66.152 11.5433 65.4986C11.9032 64.8404 12.0831 64.0663 12.0831 63.1761L12.6229 63.2898H8.24787V61.7273H13.7876V63.2898C13.7876 64.4877 13.532 65.5294 13.0206 66.4148C12.514 67.3002 11.8132 67.9867 10.9183 68.4744C10.0282 68.9574 9.00545 69.1989 7.85014 69.1989C6.56226 69.1989 5.43063 68.8958 4.45526 68.2898C3.48461 67.6837 2.72704 66.822 2.18253 65.7045C1.64276 64.5871 1.37287 63.2614 1.37287 61.7273C1.37287 60.5767 1.52675 59.5421 1.83452 58.6236C2.14702 57.7003 2.58736 56.9143 3.15554 56.2656C3.72372 55.617 4.39607 55.1198 5.17259 54.7741C5.9491 54.4285 6.80374 54.2557 7.73651 54.2557C8.50355 54.2557 9.21851 54.3717 9.88139 54.6037C10.549 54.831 11.1432 55.1553 11.6641 55.5767C12.1896 55.9934 12.6276 56.4929 12.978 57.0753C13.3284 57.6529 13.5698 58.2945 13.7024 59H11.8842ZM17.2607 69V58.0909H18.9368V69H17.2607ZM18.1129 56.2727C17.7862 56.2727 17.5045 56.1615 17.2678 55.9389C17.0357 55.7164 16.9197 55.4489 16.9197 55.1364C16.9197 54.8239 17.0357 54.5563 17.2678 54.3338C17.5045 54.1113 17.7862 54 18.1129 54C18.4396 54 18.719 54.1113 18.951 54.3338C19.1877 54.5563 19.3061 54.8239 19.3061 55.1364C19.3061 55.4489 19.1877 55.7164 18.951 55.9389C18.719 56.1615 18.4396 56.2727 18.1129 56.2727ZM26.7511 58.0909V59.5114H21.0977V58.0909H26.7511ZM22.7454 55.4773H24.4215V65.875C24.4215 66.3485 24.4902 66.7036 24.6275 66.9403C24.7695 67.1723 24.9495 67.3286 25.1673 67.4091C25.3898 67.4848 25.6242 67.5227 25.8704 67.5227C26.055 67.5227 26.2066 67.5133 26.3249 67.4943C26.4433 67.4706 26.538 67.4517 26.609 67.4375L26.9499 68.9432C26.8363 68.9858 26.6777 69.0284 26.4741 69.071C26.2705 69.1184 26.0124 69.142 25.6999 69.142C25.2264 69.142 24.7624 69.0402 24.3079 68.8366C23.8581 68.633 23.484 68.3229 23.1857 67.9062C22.8922 67.4896 22.7454 66.964 22.7454 66.3295V55.4773ZM29.734 69V54.4545H31.4954V60.9318H39.2511V54.4545H41.0124V69H39.2511V62.4943H31.4954V69H29.734ZM51.1864 64.5398V58.0909H52.8626V69H51.1864V67.1534H51.0728C50.8171 67.7074 50.4194 68.1785 49.8796 68.5668C49.3398 68.9503 48.658 69.142 47.8342 69.142C47.1523 69.142 46.5463 68.9929 46.016 68.6946C45.4857 68.3916 45.069 67.937 44.766 67.331C44.4629 66.7202 44.3114 65.9508 44.3114 65.0227V58.0909H45.9876V64.9091C45.9876 65.7045 46.2101 66.339 46.6552 66.8125C47.105 67.286 47.6779 67.5227 48.3739 67.5227C48.7906 67.5227 49.2144 67.4162 49.6452 67.2031C50.0808 66.9901 50.4454 66.6634 50.739 66.223C51.0373 65.7827 51.1864 65.2216 51.1864 64.5398ZM56.1598 69V54.4545H57.8359V59.8239H57.978C58.1011 59.6345 58.2715 59.393 58.4893 59.0994C58.7119 58.8011 59.0291 58.536 59.4411 58.304C59.8577 58.0672 60.4212 57.9489 61.1314 57.9489C62.05 57.9489 62.8596 58.1785 63.5604 58.6378C64.2611 59.0971 64.808 59.7481 65.201 60.5909C65.594 61.4337 65.7905 62.428 65.7905 63.5739C65.7905 64.7292 65.594 65.7306 65.201 66.5781C64.808 67.4209 64.2635 68.0743 63.5675 68.5384C62.8714 68.9976 62.0689 69.2273 61.1598 69.2273C60.459 69.2273 59.898 69.1113 59.4766 68.8793C59.0552 68.6425 58.7308 68.375 58.5036 68.0767C58.2763 67.7737 58.1011 67.5227 57.978 67.3239H57.7791V69H56.1598ZM57.8075 63.5455C57.8075 64.3693 57.9283 65.0961 58.1697 65.7259C58.4112 66.3509 58.764 66.8409 59.228 67.196C59.692 67.5464 60.2602 67.7216 60.9325 67.7216C61.6333 67.7216 62.218 67.5369 62.6868 67.1676C63.1603 66.7936 63.5154 66.2917 63.7521 65.6619C63.9936 65.0275 64.1143 64.322 64.1143 63.5455C64.1143 62.7784 63.996 62.0871 63.7592 61.4716C63.5272 60.8513 63.1745 60.3613 62.701 60.0014C62.2322 59.6368 61.6428 59.4545 60.9325 59.4545C60.2507 59.4545 59.6778 59.6274 59.2138 59.973C58.7498 60.3139 58.3994 60.7921 58.1626 61.4077C57.9259 62.0185 57.8075 62.7311 57.8075 63.5455Z" fill="white"/>
<defs>
<clipPath id="clip0_19_197">
<rect width="50" height="50" fill="white" transform="translate(9)"/>
</clipPath>
</defs>
</svg>
