<svg width="40" height="40" viewBox="0 0 40 40" fill="none" xmlns="http://www.w3.org/2000/svg">
<g clip-path="url(#clip0_56_93)">
<path fill-rule="evenodd" clip-rule="evenodd" d="M19.9993 0.498205C8.95581 0.498205 0 9.45252 0 20.4974C0 29.3344 5.72988 36.8285 13.6766 39.4743C14.6769 39.6595 15.0445 39.0395 15.0445 38.5109C15.0445 38.034 15.0246 36.4587 15.0164 34.7889C9.45194 35.9988 8.27894 32.4281 8.27894 32.4281C7.36944 30.1161 6.05838 29.5012 6.05838 29.5012C4.24388 28.2588 6.19644 28.2861 6.19644 28.2861C8.20431 28.4264 9.26144 30.3457 9.26144 30.3457C11.0464 33.4033 13.9416 32.5182 15.0821 32.0081C15.2623 30.7155 15.779 29.8326 16.3518 29.3329C11.9093 28.8287 7.2395 27.1131 7.2395 19.4491C7.2395 17.2663 8.022 15.4813 9.29981 14.0816C9.09169 13.5768 8.40663 11.5438 9.4925 8.78952C9.4925 8.78952 11.1719 8.25139 14.9943 10.8395C16.5888 10.3973 18.2992 10.1744 19.9978 10.167C21.6978 10.1744 23.4112 10.3966 25.0079 10.8395C28.8252 8.25289 30.5031 8.78952 30.5031 8.78952C31.5904 11.5445 30.9084 13.579 30.7002 14.0817C31.9824 15.4813 32.7583 17.2663 32.7583 19.4491C32.7583 27.1308 28.0781 28.8198 23.626 29.3151C24.3436 29.9352 24.9843 31.1525 24.9843 33.0172C24.9843 35.6917 24.9614 37.8472 24.9614 38.505C24.9614 39.0372 25.3217 39.6595 26.3359 39.4646C34.2782 36.8175 40.0008 29.3225 40.0008 20.4907C40.0008 9.44727 31.0464 0.491455 20.0008 0.491455L19.9993 0.498205Z" fill="white"/>
</g>
<defs>
<clipPath id="clip0_56_93">
<path d="M0 20C0 8.95431 8.95431 0 20 0C31.0457 0 40 8.95431 40 20C40 31.0457 31.0457 40 20 40C8.95431 40 0 31.0457 0 20Z" fill="white"/>
</clipPath>
</defs>
</svg>
