<svg width="57" height="75" viewBox="0 0 57 75" fill="none" xmlns="http://www.w3.org/2000/svg">
<path d="M12.375 43.75L9.25 4.6875H46.75L43.625 43.75L28 48.4375L12.375 43.75Z" fill="#E44D26"/>
<path d="M43.625 7.8125H28V46.0938L40.5 42.1875L43.625 7.8125Z" fill="#F16529"/>
<path d="M17.8438 27.3438L16.2812 12.5H40.5L39.7188 17.1875H20.9688L21.75 22.6562H38.9375L37.375 37.5L28 40.625L18.625 37.5L17.8438 29.6875H22.5312L23.3125 33.5938L28 35.1562L32.6875 33.5938L33.4688 27.3438H17.8438Z" fill="white"/>
<path d="M1.92152 70V55.4545H3.68288V61.9318H11.4386V55.4545H13.1999V70H11.4386V63.4943H3.68288V70H1.92152ZM15.9308 57.017V55.4545H26.8398V57.017H22.266V70H20.5046V57.017H15.9308ZM29.5582 55.4545H31.6605L36.6037 67.5284H36.7741L41.7173 55.4545H43.8196V70H42.1719V58.9489H42.0298L37.4844 70H35.8935L31.348 58.9489H31.206V70H29.5582V55.4545ZM47.3512 70V55.4545H49.1126V68.4375H55.8739V70H47.3512Z" fill="white"/>
</svg>
