<svg width="100" height="70" viewBox="0 0 100 70" fill="none" xmlns="http://www.w3.org/2000/svg">
<g clip-path="url(#clip0_19_139)">
<path fill-rule="evenodd" clip-rule="evenodd" d="M25 0H75V50H25V0Z" fill="#F7DF1E"/>
<path fill-rule="evenodd" clip-rule="evenodd" d="M38.147 41.7847L41.9718 39.4694C42.7083 40.7797 43.3797 41.8864 44.991 41.8864C46.5332 41.8864 47.5098 41.2842 47.5098 38.9323V22.9533H52.2095V38.9974C52.2095 43.864 49.3571 46.0775 45.1945 46.0775C41.4347 46.0775 39.2537 44.1325 38.147 41.7847ZM54.7607 41.2802L58.5856 39.0666C59.5947 40.7105 60.9009 41.919 63.2161 41.919C65.1611 41.919 66.4062 40.9465 66.4062 39.6037C66.4062 37.9924 65.1326 37.4227 62.9842 36.4828L61.8083 35.9782C58.4188 34.5337 56.1686 32.723 56.1686 28.8982C56.1686 25.3744 58.8542 22.6888 63.0493 22.6888C66.036 22.6888 68.1844 23.7305 69.7266 26.4486L66.0685 28.7964C65.2629 27.3519 64.3921 26.7823 63.0493 26.7823C61.674 26.7823 60.7992 27.653 60.7992 28.7964C60.7992 30.2043 61.6699 30.778 63.6841 31.6488L64.86 32.1534C68.8558 33.8664 71.1019 35.612 71.1019 39.5386C71.1019 43.7663 67.7775 46.0816 63.3138 46.0816C58.9559 46.0816 56.1361 43.9983 54.7607 41.2802Z" fill="black"/>
</g>
<path d="M7.64205 50.4545H9.40341V60.8523C9.40341 61.7803 9.23295 62.5687 8.89205 63.2173C8.55114 63.866 8.07055 64.3584 7.45028 64.6946C6.83002 65.0308 6.09848 65.1989 5.25568 65.1989C4.46023 65.1989 3.75237 65.0545 3.1321 64.7656C2.51184 64.4721 2.02415 64.0554 1.66903 63.5156C1.31392 62.9759 1.13636 62.3343 1.13636 61.5909H2.86932C2.86932 62.0028 2.97112 62.3627 3.17472 62.6705C3.38305 62.9735 3.66714 63.2102 4.02699 63.3807C4.38684 63.5511 4.7964 63.6364 5.25568 63.6364C5.76231 63.6364 6.19318 63.5298 6.5483 63.3168C6.90341 63.1037 7.1733 62.7912 7.35795 62.3793C7.54735 61.9626 7.64205 61.4536 7.64205 60.8523V50.4545ZM15.9162 65.2557C15.2249 65.2557 14.5975 65.1255 14.0341 64.8651C13.4706 64.5999 13.0232 64.2188 12.6918 63.7216C12.3603 63.2197 12.1946 62.6136 12.1946 61.9034C12.1946 61.2784 12.3177 60.7718 12.5639 60.3835C12.8101 59.9905 13.1392 59.6828 13.5511 59.4602C13.9631 59.2377 14.4176 59.072 14.9148 58.9631C15.4167 58.8494 15.9209 58.7595 16.4276 58.6932C17.0904 58.608 17.6278 58.544 18.0398 58.5014C18.4564 58.4541 18.7595 58.3759 18.9489 58.267C19.143 58.1581 19.2401 57.9687 19.2401 57.6989V57.642C19.2401 56.9413 19.0483 56.3968 18.6648 56.0085C18.286 55.6203 17.7107 55.4261 16.9389 55.4261C16.1387 55.4261 15.5114 55.6013 15.0568 55.9517C14.6023 56.3021 14.2827 56.6761 14.098 57.0739L12.5071 56.5057C12.7912 55.8428 13.17 55.3267 13.6435 54.9574C14.1217 54.5833 14.6425 54.3229 15.206 54.1761C15.7741 54.0246 16.3329 53.9489 16.8821 53.9489C17.2325 53.9489 17.6349 53.9915 18.0895 54.0767C18.5488 54.1572 18.9915 54.3253 19.4176 54.581C19.8485 54.8366 20.206 55.2225 20.4901 55.7386C20.7741 56.2547 20.9162 56.946 20.9162 57.8125V65H19.2401V63.5227H19.1548C19.0412 63.7595 18.8518 64.0128 18.5866 64.2827C18.3215 64.5526 17.9688 64.7822 17.5284 64.9716C17.0881 65.161 16.5507 65.2557 15.9162 65.2557ZM16.1719 63.75C16.8348 63.75 17.3935 63.6198 17.848 63.3594C18.3073 63.099 18.6529 62.7628 18.8849 62.3509C19.1217 61.9389 19.2401 61.5057 19.2401 61.0511V59.517C19.169 59.6023 19.0128 59.6804 18.7713 59.7514C18.5346 59.8177 18.2599 59.8769 17.9474 59.929C17.6397 59.9763 17.339 60.0189 17.0455 60.0568C16.7566 60.09 16.5223 60.1184 16.3423 60.142C15.9067 60.1989 15.4995 60.2912 15.1207 60.419C14.7467 60.5421 14.4437 60.7292 14.2116 60.9801C13.9844 61.2263 13.8707 61.5625 13.8707 61.9886C13.8707 62.571 14.0862 63.0114 14.517 63.3097C14.9527 63.6032 15.5043 63.75 16.1719 63.75ZM32.5053 54.0909L28.4712 65H26.7667L22.7326 54.0909H24.5508L27.5621 62.7841H27.6758L30.6871 54.0909H32.5053ZM37.5959 65.2557C36.9046 65.2557 36.2772 65.1255 35.7138 64.8651C35.1503 64.5999 34.7029 64.2188 34.3714 63.7216C34.04 63.2197 33.8743 62.6136 33.8743 61.9034C33.8743 61.2784 33.9974 60.7718 34.2436 60.3835C34.4898 59.9905 34.8189 59.6828 35.2308 59.4602C35.6428 59.2377 36.0973 59.072 36.5945 58.9631C37.0964 58.8494 37.6006 58.7595 38.1072 58.6932C38.7701 58.608 39.3075 58.544 39.7195 58.5014C40.1361 58.4541 40.4392 58.3759 40.6286 58.267C40.8227 58.1581 40.9197 57.9687 40.9197 57.6989V57.642C40.9197 56.9413 40.728 56.3968 40.3445 56.0085C39.9657 55.6203 39.3904 55.4261 38.6186 55.4261C37.8184 55.4261 37.1911 55.6013 36.7365 55.9517C36.282 56.3021 35.9624 56.6761 35.7777 57.0739L34.1868 56.5057C34.4709 55.8428 34.8497 55.3267 35.3232 54.9574C35.8014 54.5833 36.3222 54.3229 36.8857 54.1761C37.4538 54.0246 38.0125 53.9489 38.5618 53.9489C38.9122 53.9489 39.3146 53.9915 39.7692 54.0767C40.2285 54.1572 40.6712 54.3253 41.0973 54.581C41.5282 54.8366 41.8857 55.2225 42.1697 55.7386C42.4538 56.2547 42.5959 56.946 42.5959 57.8125V65H40.9197V63.5227H40.8345C40.7209 63.7595 40.5315 64.0128 40.2663 64.2827C40.0012 64.5526 39.6484 64.7822 39.2081 64.9716C38.7678 65.161 38.2304 65.2557 37.5959 65.2557ZM37.8516 63.75C38.5144 63.75 39.0732 63.6198 39.5277 63.3594C39.987 63.099 40.3326 62.7628 40.5646 62.3509C40.8014 61.9389 40.9197 61.5057 40.9197 61.0511V59.517C40.8487 59.6023 40.6925 59.6804 40.451 59.7514C40.2143 59.8177 39.9396 59.8769 39.6271 59.929C39.3194 59.9763 39.0187 60.0189 38.7251 60.0568C38.4363 60.09 38.2019 60.1184 38.022 60.142C37.5864 60.1989 37.1792 60.2912 36.8004 60.419C36.4264 60.5421 36.1233 60.7292 35.8913 60.9801C35.6641 61.2263 35.5504 61.5625 35.5504 61.9886C35.5504 62.571 35.7659 63.0114 36.1967 63.3097C36.6323 63.6032 37.1839 63.75 37.8516 63.75ZM53.837 54.0909C53.7518 53.3712 53.4061 52.8125 52.8001 52.4148C52.194 52.017 51.4506 51.8182 50.57 51.8182C49.926 51.8182 49.3626 51.9223 48.8796 52.1307C48.4014 52.339 48.0273 52.6255 47.7575 52.9901C47.4923 53.3546 47.3597 53.7689 47.3597 54.233C47.3597 54.6212 47.4521 54.955 47.6367 55.2344C47.8261 55.509 48.0676 55.7386 48.3612 55.9233C48.6547 56.1032 48.9625 56.2524 49.2844 56.3707C49.6064 56.4844 49.9023 56.5767 50.1722 56.6477L51.6495 57.0455C52.0283 57.1449 52.4497 57.2822 52.9137 57.4574C53.3825 57.6326 53.8299 57.8717 54.256 58.1747C54.6869 58.473 55.042 58.8565 55.3214 59.3253C55.6007 59.794 55.7404 60.3693 55.7404 61.0511C55.7404 61.8371 55.5344 62.5473 55.1225 63.1818C54.7153 63.8163 54.1187 64.3205 53.3327 64.6946C52.5515 65.0687 51.6022 65.2557 50.4847 65.2557C49.4431 65.2557 48.5411 65.0876 47.7788 64.7514C47.0212 64.4152 46.4246 63.9465 45.989 63.3452C45.5581 62.7438 45.3143 62.0455 45.2575 61.25H47.0756C47.123 61.7992 47.3076 62.2538 47.6296 62.6136C47.9563 62.9687 48.3683 63.2339 48.8654 63.4091C49.3673 63.5795 49.9071 63.6648 50.4847 63.6648C51.1571 63.6648 51.7608 63.5559 52.2958 63.3381C52.8308 63.1155 53.2546 62.8078 53.5671 62.4148C53.8796 62.017 54.0359 61.553 54.0359 61.0227C54.0359 60.5398 53.9009 60.1468 53.631 59.8438C53.3612 59.5407 53.006 59.2945 52.5657 59.1051C52.1254 58.9157 51.6495 58.75 51.1381 58.608L49.3484 58.0966C48.212 57.7699 47.3124 57.3035 46.6495 56.6974C45.9866 56.0914 45.6552 55.2983 45.6552 54.3182C45.6552 53.5038 45.8754 52.7936 46.3157 52.1875C46.7608 51.5767 47.3574 51.1032 48.1055 50.767C48.8583 50.4261 49.6987 50.2557 50.6268 50.2557C51.5643 50.2557 52.3976 50.4238 53.1268 50.7599C53.8559 51.0914 54.4336 51.5459 54.8597 52.1236C55.2906 52.7012 55.5179 53.357 55.5415 54.0909H53.837ZM62.8409 65.2273C61.8182 65.2273 60.9375 64.9858 60.1989 64.5028C59.4602 64.0199 58.892 63.3546 58.4943 62.5071C58.0966 61.6596 57.8977 60.6913 57.8977 59.6023C57.8977 58.4943 58.1013 57.5166 58.5085 56.669C58.9205 55.8168 59.4934 55.1515 60.2273 54.6733C60.9659 54.1903 61.8277 53.9489 62.8125 53.9489C63.5795 53.9489 64.2708 54.0909 64.8864 54.375C65.5019 54.6591 66.0062 55.0568 66.3991 55.5682C66.7921 56.0795 67.036 56.6761 67.1307 57.358H65.4545C65.3267 56.8608 65.0426 56.4205 64.6023 56.0369C64.1667 55.6487 63.5795 55.4545 62.8409 55.4545C62.1875 55.4545 61.6146 55.625 61.1222 55.9659C60.6345 56.3021 60.2533 56.7779 59.9787 57.3935C59.7088 58.0043 59.5739 58.7216 59.5739 59.5455C59.5739 60.3883 59.7064 61.1222 59.9716 61.7472C60.2415 62.3722 60.6203 62.8575 61.108 63.2031C61.6004 63.5488 62.178 63.7216 62.8409 63.7216C63.2765 63.7216 63.6719 63.6458 64.027 63.4943C64.3821 63.3428 64.6828 63.125 64.929 62.8409C65.1752 62.5568 65.3504 62.2159 65.4545 61.8182H67.1307C67.036 62.4621 66.8016 63.0421 66.4276 63.5582C66.0582 64.0696 65.5682 64.4768 64.9574 64.7798C64.3513 65.0781 63.6458 65.2273 62.8409 65.2273ZM69.581 65V54.0909H71.2003V55.7386H71.3139C71.5128 55.1989 71.8726 54.7609 72.3935 54.4247C72.9143 54.0885 73.5014 53.9205 74.1548 53.9205C74.2779 53.9205 74.4318 53.9228 74.6165 53.9276C74.8011 53.9323 74.9408 53.9394 75.0355 53.9489V55.6534C74.9787 55.6392 74.8485 55.6179 74.6449 55.5895C74.446 55.5563 74.2353 55.5398 74.0128 55.5398C73.4825 55.5398 73.009 55.651 72.5923 55.8736C72.1804 56.0914 71.8537 56.3944 71.6122 56.7827C71.3755 57.1662 71.2571 57.6042 71.2571 58.0966V65H69.581ZM77.0224 65V54.0909H78.6985V65H77.0224ZM77.8746 52.2727C77.5479 52.2727 77.2662 52.1615 77.0295 51.9389C76.7975 51.7164 76.6815 51.4489 76.6815 51.1364C76.6815 50.8239 76.7975 50.5563 77.0295 50.3338C77.2662 50.1113 77.5479 50 77.8746 50C78.2013 50 78.4807 50.1113 78.7127 50.3338C78.9495 50.5563 79.0678 50.8239 79.0678 51.1364C79.0678 51.4489 78.9495 51.7164 78.7127 51.9389C78.4807 52.1615 78.2013 52.2727 77.8746 52.2727ZM81.7685 69.0909V54.0909H83.3878V55.8239H83.5866C83.7098 55.6345 83.8802 55.393 84.098 55.0994C84.3205 54.8011 84.6378 54.536 85.0497 54.304C85.4664 54.0672 86.0298 53.9489 86.7401 53.9489C87.6586 53.9489 88.4683 54.1785 89.169 54.6378C89.8698 55.0971 90.4167 55.7481 90.8097 56.5909C91.2027 57.4337 91.3991 58.428 91.3991 59.5739C91.3991 60.7292 91.2027 61.7306 90.8097 62.5781C90.4167 63.4209 89.8722 64.0743 89.1761 64.5384C88.4801 64.9976 87.6776 65.2273 86.7685 65.2273C86.0677 65.2273 85.5066 65.1113 85.0852 64.8793C84.6638 64.6425 84.3395 64.375 84.1122 64.0767C83.8849 63.7737 83.7098 63.5227 83.5866 63.3239H83.4446V69.0909H81.7685ZM83.4162 59.5455C83.4162 60.3693 83.5369 61.0961 83.7784 61.7259C84.0199 62.3509 84.3726 62.8409 84.8366 63.196C85.3007 63.5464 85.8688 63.7216 86.5412 63.7216C87.242 63.7216 87.8267 63.5369 88.2955 63.1676C88.7689 62.7936 89.1241 62.2917 89.3608 61.6619C89.6023 61.0275 89.723 60.322 89.723 59.5455C89.723 58.7784 89.6046 58.0871 89.3679 57.4716C89.1359 56.8513 88.7831 56.3613 88.3097 56.0014C87.8409 55.6368 87.2514 55.4545 86.5412 55.4545C85.8594 55.4545 85.2865 55.6274 84.8224 55.973C84.3584 56.3139 84.008 56.7921 83.7713 57.4077C83.5346 58.0185 83.4162 58.7311 83.4162 59.5455ZM98.7003 54.0909V55.5114H93.0469V54.0909H98.7003ZM94.6946 51.4773H96.3707V61.875C96.3707 62.3485 96.4394 62.7036 96.5767 62.9403C96.7188 63.1723 96.8987 63.3286 97.1165 63.4091C97.339 63.4848 97.5734 63.5227 97.8196 63.5227C98.0043 63.5227 98.1558 63.5133 98.2741 63.4943C98.3925 63.4706 98.4872 63.4517 98.5582 63.4375L98.8991 64.9432C98.7855 64.9858 98.6269 65.0284 98.4233 65.071C98.2197 65.1184 97.9616 65.142 97.6491 65.142C97.1757 65.142 96.7116 65.0402 96.2571 64.8366C95.8073 64.633 95.4332 64.3229 95.1349 63.9062C94.8414 63.4896 94.6946 62.964 94.6946 62.3295V51.4773Z" fill="white"/>
<defs>
<clipPath id="clip0_19_139">
<rect width="50" height="50" fill="white" transform="translate(25)"/>
</clipPath>
</defs>
</svg>
