<svg width="35" height="35" viewBox="0 0 35 35" fill="none" xmlns="http://www.w3.org/2000/svg">
<g clip-path="url(#clip0_56_125)">
<g filter="url(#filter0_d_56_125)">
<path d="M8.1471 11.26H1.12079C0.808952 11.26 0.556274 11.5128 0.556274 11.8245V34.397C0.556274 34.7089 0.808952 34.9616 1.12079 34.9616H8.1471C8.45894 34.9616 8.71161 34.7089 8.71161 34.397V11.8245C8.71161 11.5128 8.45894 11.26 8.1471 11.26Z" fill="black"/>
<path d="M4.63648 0.0385742C2.0799 0.0385742 0 2.11622 0 4.66998C0 7.22486 2.0799 9.3033 4.63648 9.3033C7.19103 9.3033 9.26924 7.22475 9.26924 4.66998C9.26935 2.11622 7.19103 0.0385742 4.63648 0.0385742Z" fill="black"/>
<path d="M26.019 10.699C23.197 10.699 21.1109 11.9121 19.8456 13.2906V11.8245C19.8456 11.5128 19.5929 11.26 19.281 11.26H12.5521C12.2403 11.26 11.9876 11.5128 11.9876 11.8245V34.397C11.9876 34.7089 12.2403 34.9615 12.5521 34.9615H19.5631C19.8749 34.9615 20.1276 34.7089 20.1276 34.397V23.2289C20.1276 19.4655 21.1498 17.9993 23.7732 17.9993C26.6304 17.9993 26.8574 20.3497 26.8574 23.4225V34.3971C26.8574 34.709 27.1101 34.9616 27.4219 34.9616H34.4355C34.7473 34.9616 35 34.709 35 34.3971V22.0157C35 16.4197 33.9329 10.699 26.019 10.699Z" fill="black"/>
</g>
</g>
<defs>
<filter id="filter0_d_56_125" x="-4" y="0.0385742" width="43" height="42.9231" filterUnits="userSpaceOnUse" color-interpolation-filters="sRGB">
<feFlood flood-opacity="0" result="BackgroundImageFix"/>
<feColorMatrix in="SourceAlpha" type="matrix" values="0 0 0 0 0 0 0 0 0 0 0 0 0 0 0 0 0 0 127 0" result="hardAlpha"/>
<feOffset dy="4"/>
<feGaussianBlur stdDeviation="2"/>
<feComposite in2="hardAlpha" operator="out"/>
<feColorMatrix type="matrix" values="0 0 0 0 0 0 0 0 0 0 0 0 0 0 0 0 0 0 0.25 0"/>
<feBlend mode="normal" in2="BackgroundImageFix" result="effect1_dropShadow_56_125"/>
<feBlend mode="normal" in="SourceGraphic" in2="effect1_dropShadow_56_125" result="shape"/>
</filter>
<clipPath id="clip0_56_125">
<rect width="35" height="35" fill="white"/>
</clipPath>
</defs>
</svg>
