<svg width="263" height="274" viewBox="0 0 263 274" fill="none" xmlns="http://www.w3.org/2000/svg">
<path d="M124.573 2L123.868 2.70444H118.233L117.528 3.40888H114.006L113.301 4.11332H111.188L110.484 4.81776H108.37L107.666 5.5222H105.553L104.848 6.22664H103.439L102.735 6.93108H101.326L100.622 7.63552H99.9171L99.2127 8.33996H97.8038L97.0994 9.0444H96.3949L95.6905 9.74884H94.986L94.2816 10.4533H93.5772L92.8727 11.1577H92.1683L91.4639 11.8622H90.7594L90.055 12.5666H89.3505L88.6461 13.271H87.9417L87.2372 13.9755H86.5328L85.1239 15.3844H84.4194L83.0106 16.7932H82.3061L80.8973 18.2021H80.1928L78.0795 20.3154H77.3751L73.8529 23.8376H73.1484L65.3996 31.5865V32.2909L62.5818 35.1087V35.8131L60.4685 37.9264V38.6309L58.3552 40.7442V41.4486L57.6507 42.1531V42.8575L56.2419 44.2664V44.9708L55.5374 45.6753V46.3797L54.1285 47.7886V49.1975L52.7197 50.6063V51.3108L52.0152 52.0152V53.4241L51.3108 54.1285V54.833L50.6063 55.5374V56.2419L49.9019 56.9463V58.3552L49.1975 59.0596V60.4685L48.493 61.1729V62.5818L47.7886 63.2863V64.6951L47.0841 65.3996V67.5129L46.3797 68.2173V70.3307L45.6753 71.0351V74.5573L44.9708 75.2617V78.7839L44.2664 79.4884V90.7594L43.5619 91.4639H42.8575L41.4486 90.055H40.7442L38.6309 87.9417H37.9264L37.222 87.2372H36.5175L35.1087 85.8283H34.4042L32.9953 84.4195H32.2909L31.5865 83.715H30.882L29.4732 82.3061H28.7687L28.0643 81.6017H27.3598L26.6554 80.8973H25.951L25.2465 80.1928H24.5421L23.8376 79.4884H23.1332L22.4288 78.7839H21.7243L21.0199 78.0795H18.2021L17.4977 77.3751H16.0888L15.3844 78.0795H12.5666L11.8622 78.7839H10.4533L9.0444 80.1928H8.33996L4.11332 84.4195V85.1239L3.40888 85.8283V87.2372L2.70444 87.9417V89.3505L2 90.055V94.2816L2.70444 94.9861V97.0994L3.40888 97.8038V98.5083L4.11332 99.2127V99.9171L5.5222 101.326V102.03L6.93108 103.439H7.63552L11.8622 107.666H12.5666L29.4732 124.573V125.277L33.6998 129.504V130.208L35.8131 132.321V133.026L38.6309 135.844V136.548L40.0397 137.957V138.661L40.7442 139.366V142.888L40.0397 143.592V147.819L39.3353 148.523V152.75L38.6309 153.455V156.272L37.9264 156.977V161.203L37.222 161.908V164.726L36.5175 165.43V168.248L35.8131 168.952V171.77L35.1087 172.474V175.292L34.4042 175.997V178.11L33.6998 178.814V181.632L32.9953 182.337V184.45L32.2909 185.154V187.268L31.5865 187.972V190.085L30.882 190.79V192.903L30.1776 193.608V195.721L29.4732 196.425V198.539L28.7687 199.243V201.356L28.0643 202.061V204.174L27.3598 204.879V206.992L26.6554 207.696V210.514L25.951 211.219V212.628L25.2465 213.332V215.445L24.5421 216.15V218.967L23.8376 219.672V221.081L23.1332 221.785V224.603L22.4288 225.307V227.421L21.7243 228.125V230.238L21.0199 230.943V231.647L21.7243 232.352V233.056L23.1332 234.465H25.951L26.6554 235.17H30.1776L30.882 235.874H33.6998L34.4042 236.578H37.9264L38.6309 237.283H40.7442L41.4486 237.987H42.1531L42.8575 238.692H43.5619L44.9708 240.101H45.6753L49.1975 243.623V244.327L50.6063 245.736V246.441L51.3108 247.145V247.85L52.7197 249.258V249.963L57.6507 254.894H58.3552L59.7641 256.303H60.4685L61.1729 257.007H61.8774L62.5818 257.712H63.2863L63.9907 258.416H65.3996L66.104 259.121H68.2173L68.9218 259.825H77.3751L78.0795 259.121H83.0106L83.715 259.825H85.8283L86.5328 260.529H87.9417L89.3505 261.938H90.055L91.4639 263.347H92.1683L97.0994 268.278H97.8038L98.5082 268.983H99.2127L99.9171 269.687H100.622L101.326 270.392H102.03L102.735 271.096H104.144L104.848 271.8H117.528L118.233 271.096H119.641L120.346 270.392H121.755L122.459 269.687H123.164L123.868 268.983H124.573L125.277 268.278H127.39L128.095 267.574H134.435L135.139 268.278H137.252L137.957 268.983H138.661L139.366 269.687H140.07L140.775 270.392H142.184L142.888 271.096H144.297L145.001 271.8H157.681L158.386 271.096H159.795L160.499 270.392H161.203L161.908 269.687H162.612L163.317 268.983H164.021L164.726 268.278H165.43L169.657 264.052H170.361L172.474 261.938H173.179L174.588 260.529H175.997L176.701 259.825H178.814L179.519 259.121H184.45L185.154 259.825H193.608L194.312 259.121H196.425L197.13 258.416H198.539L199.243 257.712H199.948L200.652 257.007H201.356L202.061 256.303H202.765L204.174 254.894H204.879L209.81 249.963V249.258L211.219 247.85V247.145L211.923 246.441V245.736L213.332 244.327V243.623L216.854 240.101H217.559L218.967 238.692H219.672L220.376 237.987H221.081L221.785 237.283H223.899L224.603 236.578H228.125L228.83 235.874H231.647L232.352 235.17H235.874L236.578 234.465H239.396L240.805 233.056V232.352L241.51 231.647V230.943L240.805 230.238V228.125L240.101 227.421V225.307L239.396 224.603V221.785L238.692 221.081V219.672L237.987 218.967V216.15L237.283 215.445V213.332L236.578 212.628V211.219L235.874 210.514V207.696L235.17 206.992V204.879L234.465 204.174V202.061L233.761 201.356V199.243L233.056 198.539V196.425L232.352 195.721V193.608L231.647 192.903V190.79L230.943 190.085V187.972L230.238 187.268V185.154L229.534 184.45V181.632L228.83 180.928V178.814L228.125 178.11V175.997L227.421 175.292V172.474L226.716 171.77V168.952L226.012 168.248V165.43L225.307 164.726V161.908L224.603 161.203V156.977L223.899 156.272V153.455L223.194 152.75V148.523L222.49 147.819V143.592L221.785 142.888V139.366L222.49 138.661V137.957L223.899 136.548V135.844L226.716 133.026V132.321L228.83 130.208V129.504L233.056 125.277V124.573L249.963 107.666H250.667L254.894 103.439H255.598L257.007 102.03V101.326L258.416 99.9171V99.2127L259.121 98.5083V97.8038L259.825 97.0994V94.9861L260.529 94.2816V90.7594L259.825 90.055V87.9417L259.121 87.2372V85.8283L257.712 84.4195V83.715L254.189 80.1928H253.485L252.781 79.4884H252.076L251.372 78.7839H250.667L249.963 78.0795H241.51L240.805 78.7839H240.101L239.396 79.4884H238.692L237.987 80.1928H237.283L236.578 80.8973H235.874L235.17 81.6017H234.465L233.056 83.0106H232.352L231.647 83.715H230.943L230.238 84.4195H229.534L228.125 85.8283H227.421L226.012 87.2372H225.307L224.603 87.9417H223.899L221.785 90.055H221.081L219.672 91.4639H218.967L218.263 90.7594V79.4884L217.559 78.7839V75.2617L216.854 74.5573V71.0351L216.15 70.3307V68.2173L215.445 67.5129V65.3996L214.741 64.6951V63.2863L214.036 62.5818V61.1729L213.332 60.4685V59.0596L212.627 58.3552V56.9463L211.923 56.2419V55.5374L211.219 54.833V54.1285L210.514 53.4241V52.0152L209.81 51.3108V50.6063L209.105 49.9019V49.1975L208.401 48.493V47.7886L206.992 46.3797V45.6753L206.288 44.9708V44.2664L204.879 42.8575V42.1531L204.174 41.4486V40.7442L202.061 38.6309V37.9264L199.948 35.8131V35.1087L197.13 32.2909V31.5865L188.677 23.1332H187.972L185.154 20.3154H184.45L182.337 18.2021H181.632L180.223 16.7932H179.519L178.11 15.3844H177.406L175.997 13.9755H175.292L174.588 13.271H173.883L173.179 12.5666H172.474L171.77 11.8622H171.066L170.361 11.1577H169.657L168.952 10.4533H168.248L167.543 9.74884H166.839L166.134 9.0444H165.43L164.726 8.33996H163.317L162.612 7.63552H161.908L161.203 6.93108H159.795L159.09 6.22664H157.681L156.977 5.5222H154.863L154.159 4.81776H152.046L151.341 4.11332H149.228L148.523 3.40888H145.706L145.001 2.70444H138.661L137.957 2H124.573Z" fill="white" stroke="black" stroke-width="4"/>
<mask id="path-2-inside-1_56_110" fill="white">
<path d="M162.247 70.7366C162.247 68.9327 161.946 67.1464 161.362 65.4798C160.778 63.8132 159.921 62.2989 158.842 61.0233C157.763 59.7478 156.481 58.736 155.071 58.0456C153.661 57.3553 152.15 57 150.623 57C149.097 57 147.585 57.3553 146.175 58.0456C144.765 58.736 143.484 59.7478 142.404 61.0234C141.325 62.2989 140.469 63.8132 139.885 65.4798C139.301 67.1464 139 68.9327 139 70.7366H142.897C142.897 69.5374 143.097 68.35 143.485 67.2421C143.873 66.1343 144.442 65.1276 145.16 64.2797C145.877 63.4318 146.729 62.7591 147.666 62.3002C148.604 61.8414 149.609 61.6052 150.623 61.6052C151.638 61.6052 152.643 61.8414 153.58 62.3002C154.518 62.7591 155.369 63.4318 156.087 64.2797C156.804 65.1276 157.373 66.1343 157.762 67.2421C158.15 68.35 158.35 69.5374 158.35 70.7366H162.247Z"/>
</mask>
<path d="M162.247 70.7366C162.247 68.9327 161.946 67.1464 161.362 65.4798C160.778 63.8132 159.921 62.2989 158.842 61.0233C157.763 59.7478 156.481 58.736 155.071 58.0456C153.661 57.3553 152.15 57 150.623 57C149.097 57 147.585 57.3553 146.175 58.0456C144.765 58.736 143.484 59.7478 142.404 61.0234C141.325 62.2989 140.469 63.8132 139.885 65.4798C139.301 67.1464 139 68.9327 139 70.7366H142.897C142.897 69.5374 143.097 68.35 143.485 67.2421C143.873 66.1343 144.442 65.1276 145.16 64.2797C145.877 63.4318 146.729 62.7591 147.666 62.3002C148.604 61.8414 149.609 61.6052 150.623 61.6052C151.638 61.6052 152.643 61.8414 153.58 62.3002C154.518 62.7591 155.369 63.4318 156.087 64.2797C156.804 65.1276 157.373 66.1343 157.762 67.2421C158.15 68.35 158.35 69.5374 158.35 70.7366H162.247Z" fill="#0B0D11" stroke="black" stroke-width="6" mask="url(#path-2-inside-1_56_110)"/>
<mask id="path-3-inside-2_56_110" fill="white">
<path d="M113.247 70.7366C113.247 68.9327 112.946 67.1464 112.362 65.4798C111.778 63.8132 110.921 62.2989 109.842 61.0233C108.763 59.7478 107.481 58.736 106.071 58.0456C104.661 57.3553 103.15 57 101.623 57C100.097 57 98.5854 57.3553 97.1752 58.0456C95.765 58.736 94.4837 59.7478 93.4044 61.0234C92.3251 62.2989 91.4689 63.8132 90.8848 65.4798C90.3006 67.1464 90 68.9327 90 70.7366H93.8967C93.8967 69.5374 94.0965 68.35 94.4848 67.2421C94.8731 66.1343 95.4423 65.1276 96.1597 64.2797C96.8772 63.4318 97.729 62.7591 98.6664 62.3002C99.6039 61.8414 100.609 61.6052 101.623 61.6052C102.638 61.6052 103.643 61.8414 104.58 62.3002C105.518 62.7591 106.369 63.4318 107.087 64.2797C107.804 65.1276 108.373 66.1343 108.762 67.2421C109.15 68.35 109.35 69.5374 109.35 70.7366H113.247Z"/>
</mask>
<path d="M113.247 70.7366C113.247 68.9327 112.946 67.1464 112.362 65.4798C111.778 63.8132 110.921 62.2989 109.842 61.0233C108.763 59.7478 107.481 58.736 106.071 58.0456C104.661 57.3553 103.15 57 101.623 57C100.097 57 98.5854 57.3553 97.1752 58.0456C95.765 58.736 94.4837 59.7478 93.4044 61.0234C92.3251 62.2989 91.4689 63.8132 90.8848 65.4798C90.3006 67.1464 90 68.9327 90 70.7366H93.8967C93.8967 69.5374 94.0965 68.35 94.4848 67.2421C94.8731 66.1343 95.4423 65.1276 96.1597 64.2797C96.8772 63.4318 97.729 62.7591 98.6664 62.3002C99.6039 61.8414 100.609 61.6052 101.623 61.6052C102.638 61.6052 103.643 61.8414 104.58 62.3002C105.518 62.7591 106.369 63.4318 107.087 64.2797C107.804 65.1276 108.373 66.1343 108.762 67.2421C109.15 68.35 109.35 69.5374 109.35 70.7366H113.247Z" fill="#0B0D11" stroke="black" stroke-width="8" mask="url(#path-3-inside-2_56_110)"/>
<path d="M126.5 98.5C133.053 98.5 138.912 100.021 143.08 102.403C147.291 104.809 149.5 107.905 149.5 111C149.5 114.095 147.291 117.191 143.08 119.597C138.912 121.979 133.053 123.5 126.5 123.5C119.947 123.5 114.088 121.979 109.92 119.597C105.709 117.191 103.5 114.095 103.5 111C103.5 107.905 105.709 104.809 109.92 102.403C114.088 100.021 119.947 98.5 126.5 98.5Z" fill="#FF6666" stroke="black" stroke-width="3"/>
</svg>
