<svg width="93" height="135" viewBox="0 0 93 135" fill="none" xmlns="http://www.w3.org/2000/svg">
<g clip-path="url(#clip0_19_180)">
<path d="M45.5812 0.303833L48.5433 5.86744C49.2093 6.89392 49.9311 7.80301 50.7802 8.64967C53.2602 11.1297 55.6154 13.7271 57.7316 16.5093C62.7499 23.0994 66.1357 30.4179 68.5525 38.3325C70.0027 43.1677 70.7894 48.1277 70.8485 53.1427C71.0908 68.1369 65.9509 81.0116 55.5879 91.7109C53.8954 93.4034 52.0848 94.971 50.1425 96.3654C49.116 96.3654 48.6299 95.5779 48.207 94.8536C47.4202 93.5249 46.9374 92.0089 46.6951 90.5004C46.3305 88.6856 46.0916 86.8724 46.2098 84.9993V84.1534C46.1265 83.9728 45.2216 0.730907 45.5821 0.304666V0.305498L45.5812 0.303833Z" fill="#599636"/>
<path d="M45.5813 0.118996C45.4597 -0.123262 45.339 0.0598884 45.2166 0.178104C45.2757 1.39189 44.852 2.47414 44.1901 3.50811C43.4617 4.53459 42.4977 5.32297 41.5295 6.16879C36.154 10.8233 31.9224 16.446 28.5333 22.7339C24.0245 31.1971 21.7001 40.2664 21.0416 49.8152C20.7402 53.2593 22.1313 65.413 23.2169 68.9195C26.179 78.2285 31.4995 86.029 38.3909 92.799C40.0834 94.429 41.8941 95.9408 43.7672 97.3944C44.3117 97.3944 44.3708 96.909 44.4948 96.5477C44.7321 95.7752 44.9161 94.9859 45.0393 94.1884L46.2531 85.1225L45.5804 0.118996H45.5813Z" fill="#6CAC48"/>
<path d="M48.5433 100.048C48.6648 98.6598 49.3308 97.5084 50.0559 96.3604C49.3275 96.059 48.7864 95.4588 48.3635 94.7895C47.9988 94.1859 47.6975 93.4608 47.4619 92.7948C46.6152 90.2557 46.4354 87.5916 46.1923 84.9976V83.4266C45.8909 83.6689 45.8277 85.7227 45.8277 86.0282C45.6587 88.763 45.2832 91.5061 44.7387 94.1909C44.5581 95.2798 44.4374 96.3654 43.7672 97.3328C43.7672 97.4543 43.7672 97.575 43.8263 97.7565C44.9152 100.962 45.2141 104.225 45.3972 107.552V108.766C45.3972 110.215 45.3381 109.909 46.5419 110.396C47.0273 110.576 47.5684 110.638 48.0538 110.999C48.4184 110.999 48.4775 110.698 48.4775 110.455L48.2969 108.46V102.896C48.2377 101.925 48.4184 100.961 48.5391 100.053L48.5433 100.048Z" fill="#C2BFBF"/>
</g>
<path d="M1.79652 115.455H3.89879L8.84197 127.528H9.01243L13.9556 115.455H16.0579V130H14.4102V118.949H14.2681L9.72266 130H8.13175L3.58629 118.949H3.44425V130H1.79652V115.455ZM23.794 130.227C22.8092 130.227 21.9451 129.993 21.2017 129.524C20.4631 129.055 19.8854 128.4 19.4688 127.557C19.0568 126.714 18.8509 125.729 18.8509 124.602C18.8509 123.466 19.0568 122.474 19.4688 121.626C19.8854 120.779 20.4631 120.121 21.2017 119.652C21.9451 119.183 22.8092 118.949 23.794 118.949C24.7789 118.949 25.6406 119.183 26.3793 119.652C27.1226 120.121 27.7003 120.779 28.1122 121.626C28.5289 122.474 28.7372 123.466 28.7372 124.602C28.7372 125.729 28.5289 126.714 28.1122 127.557C27.7003 128.4 27.1226 129.055 26.3793 129.524C25.6406 129.993 24.7789 130.227 23.794 130.227ZM23.794 128.722C24.5421 128.722 25.1577 128.53 25.6406 128.146C26.1236 127.763 26.4811 127.259 26.7131 126.634C26.9451 126.009 27.0611 125.331 27.0611 124.602C27.0611 123.873 26.9451 123.194 26.7131 122.564C26.4811 121.934 26.1236 121.425 25.6406 121.037C25.1577 120.649 24.5421 120.455 23.794 120.455C23.0459 120.455 22.4304 120.649 21.9474 121.037C21.4645 121.425 21.107 121.934 20.875 122.564C20.643 123.194 20.527 123.873 20.527 124.602C20.527 125.331 20.643 126.009 20.875 126.634C21.107 127.259 21.4645 127.763 21.9474 128.146C22.4304 128.53 23.0459 128.722 23.794 128.722ZM32.9719 123.438V130H31.2958V119.091H32.9151V120.795H33.0572C33.3129 120.241 33.7011 119.796 34.2219 119.46C34.7428 119.119 35.4151 118.949 36.239 118.949C36.9776 118.949 37.6239 119.1 38.1779 119.403C38.7319 119.702 39.1628 120.156 39.4705 120.767C39.7783 121.373 39.9322 122.14 39.9322 123.068V130H38.256V123.182C38.256 122.325 38.0335 121.657 37.5884 121.179C37.1433 120.696 36.5326 120.455 35.756 120.455C35.221 120.455 34.7428 120.571 34.3214 120.803C33.9047 121.035 33.5756 121.373 33.3342 121.818C33.0927 122.263 32.9719 122.803 32.9719 123.438ZM47.3984 134.318C46.5888 134.318 45.8928 134.214 45.3104 134.006C44.728 133.802 44.2427 133.532 43.8544 133.196C43.4709 132.865 43.1655 132.509 42.9382 132.131L44.2734 131.193C44.425 131.392 44.6167 131.619 44.8487 131.875C45.0807 132.135 45.398 132.36 45.8004 132.55C46.2076 132.744 46.7403 132.841 47.3984 132.841C48.2791 132.841 49.0059 132.628 49.5788 132.202C50.1518 131.776 50.4382 131.108 50.4382 130.199V127.983H50.2962C50.1731 128.182 49.9979 128.428 49.7706 128.722C49.5481 129.01 49.2261 129.268 48.8047 129.496C48.388 129.718 47.8246 129.83 47.1143 129.83C46.2337 129.83 45.4429 129.621 44.7422 129.205C44.0462 128.788 43.4946 128.182 43.0874 127.386C42.6849 126.591 42.4837 125.625 42.4837 124.489C42.4837 123.371 42.6802 122.398 43.0732 121.57C43.4661 120.736 44.013 120.092 44.7138 119.638C45.4145 119.179 46.2242 118.949 47.1428 118.949C47.853 118.949 48.4164 119.067 48.8331 119.304C49.2545 119.536 49.5765 119.801 49.799 120.099C50.0263 120.393 50.2015 120.634 50.3246 120.824H50.495V119.091H52.1143V130.312C52.1143 131.25 51.9013 132.012 51.4751 132.599C51.0537 133.191 50.4856 133.625 49.7706 133.899C49.0604 134.179 48.2696 134.318 47.3984 134.318ZM47.3416 128.324C48.014 128.324 48.5821 128.17 49.0462 127.862C49.5102 127.554 49.8629 127.112 50.1044 126.534C50.3459 125.956 50.4666 125.265 50.4666 124.46C50.4666 123.674 50.3482 122.981 50.1115 122.379C49.8748 121.778 49.5244 121.307 49.0604 120.966C48.5964 120.625 48.0234 120.455 47.3416 120.455C46.6314 120.455 46.0395 120.634 45.5661 120.994C45.0973 121.354 44.7446 121.837 44.5078 122.443C44.2758 123.049 44.1598 123.722 44.1598 124.46C44.1598 125.218 44.2782 125.888 44.5149 126.47C44.7564 127.048 45.1115 127.502 45.5803 127.834C46.0537 128.161 46.6409 128.324 47.3416 128.324ZM59.6143 130.227C58.6295 130.227 57.7654 129.993 57.022 129.524C56.2834 129.055 55.7057 128.4 55.2891 127.557C54.8771 126.714 54.6712 125.729 54.6712 124.602C54.6712 123.466 54.8771 122.474 55.2891 121.626C55.7057 120.779 56.2834 120.121 57.022 119.652C57.7654 119.183 58.6295 118.949 59.6143 118.949C60.5992 118.949 61.4609 119.183 62.1996 119.652C62.9429 120.121 63.5206 120.779 63.9325 121.626C64.3492 122.474 64.5575 123.466 64.5575 124.602C64.5575 125.729 64.3492 126.714 63.9325 127.557C63.5206 128.4 62.9429 129.055 62.1996 129.524C61.4609 129.993 60.5992 130.227 59.6143 130.227ZM59.6143 128.722C60.3625 128.722 60.978 128.53 61.4609 128.146C61.9439 127.763 62.3014 127.259 62.5334 126.634C62.7654 126.009 62.8814 125.331 62.8814 124.602C62.8814 123.873 62.7654 123.194 62.5334 122.564C62.3014 121.934 61.9439 121.425 61.4609 121.037C60.978 120.649 60.3625 120.455 59.6143 120.455C58.8662 120.455 58.2507 120.649 57.7678 121.037C57.2848 121.425 56.9273 121.934 56.6953 122.564C56.4633 123.194 56.3473 123.873 56.3473 124.602C56.3473 125.331 56.4633 126.009 56.6953 126.634C56.9273 127.259 57.2848 127.763 57.7678 128.146C58.2507 128.53 58.8662 128.722 59.6143 128.722ZM71.832 130H67.3434V115.455H72.0309C73.4419 115.455 74.6493 115.746 75.6531 116.328C76.6568 116.906 77.4263 117.737 77.9613 118.821C78.4963 119.901 78.7638 121.193 78.7638 122.699C78.7638 124.214 78.494 125.518 77.9542 126.612C77.4144 127.701 76.6284 128.539 75.5962 129.126C74.564 129.709 73.3093 130 71.832 130ZM69.1048 128.438H71.7184C72.921 128.438 73.9177 128.205 74.7085 127.741C75.4992 127.277 76.0887 126.617 76.4769 125.76C76.8652 124.903 77.0593 123.883 77.0593 122.699C77.0593 121.525 76.8675 120.514 76.484 119.666C76.1005 118.814 75.5276 118.161 74.7653 117.706C74.003 117.247 73.0536 117.017 71.9173 117.017H69.1048V128.438ZM81.7184 130V115.455H86.8036C87.8169 115.455 88.6526 115.63 89.3107 115.98C89.9689 116.326 90.4589 116.792 90.7809 117.379C91.1029 117.962 91.2638 118.608 91.2638 119.318C91.2638 119.943 91.1526 120.459 90.93 120.866C90.7122 121.274 90.4234 121.596 90.0636 121.832C89.7085 122.069 89.3226 122.244 88.9059 122.358V122.5C89.351 122.528 89.7984 122.685 90.2482 122.969C90.698 123.253 91.0745 123.66 91.3775 124.19C91.6805 124.721 91.832 125.369 91.832 126.136C91.832 126.866 91.6663 127.521 91.3349 128.104C91.0034 128.686 90.4802 129.148 89.7653 129.489C89.0503 129.83 88.1199 130 86.9741 130H81.7184ZM83.4798 128.438H86.9741C88.1246 128.438 88.9414 128.215 89.4244 127.77C89.9121 127.32 90.1559 126.776 90.1559 126.136C90.1559 125.644 90.0304 125.189 89.7795 124.773C89.5285 124.351 89.171 124.015 88.707 123.764C88.243 123.509 87.6938 123.381 87.0593 123.381H83.4798V128.438ZM83.4798 121.847H86.7468C87.2771 121.847 87.7553 121.742 88.1815 121.534C88.6123 121.326 88.9532 121.032 89.2042 120.653C89.4599 120.275 89.5877 119.83 89.5877 119.318C89.5877 118.679 89.3652 118.137 88.9201 117.692C88.475 117.242 87.7695 117.017 86.8036 117.017H83.4798V121.847Z" fill="white"/>
<defs>
<clipPath id="clip0_19_180">
<rect width="49.8569" height="111" fill="white" transform="translate(21)"/>
</clipPath>
</defs>
</svg>
