<svg width="75" height="80" viewBox="0 0 75 80" fill="none" xmlns="http://www.w3.org/2000/svg">
<path d="M13.4615 60.4545V75H11.7569L3.83079 63.5795H3.68874V75H1.92738V60.4545H3.63192L11.5865 71.9034H11.7285V60.4545H13.4615ZM21.1905 75.2273C20.2057 75.2273 19.3416 74.9929 18.5982 74.5241C17.8596 74.0554 17.2819 73.3996 16.8652 72.5568C16.4533 71.714 16.2473 70.7292 16.2473 69.6023C16.2473 68.4659 16.4533 67.474 16.8652 66.6264C17.2819 65.7789 17.8596 65.1207 18.5982 64.652C19.3416 64.1832 20.2057 63.9489 21.1905 63.9489C22.1754 63.9489 23.0371 64.1832 23.7757 64.652C24.5191 65.1207 25.0968 65.7789 25.5087 66.6264C25.9254 67.474 26.1337 68.4659 26.1337 69.6023C26.1337 70.7292 25.9254 71.714 25.5087 72.5568C25.0968 73.3996 24.5191 74.0554 23.7757 74.5241C23.0371 74.9929 22.1754 75.2273 21.1905 75.2273ZM21.1905 73.7216C21.9386 73.7216 22.5542 73.5298 23.0371 73.1463C23.5201 72.7628 23.8775 72.2585 24.1096 71.6335C24.3416 71.0085 24.4576 70.3314 24.4576 69.6023C24.4576 68.8731 24.3416 68.1937 24.1096 67.5639C23.8775 66.9342 23.5201 66.4252 23.0371 66.0369C22.5542 65.6487 21.9386 65.4545 21.1905 65.4545C20.4424 65.4545 19.8269 65.6487 19.3439 66.0369C18.861 66.4252 18.5035 66.9342 18.2715 67.5639C18.0395 68.1937 17.9235 68.8731 17.9235 69.6023C17.9235 70.3314 18.0395 71.0085 18.2715 71.6335C18.5035 72.2585 18.861 72.7628 19.3439 73.1463C19.8269 73.5298 20.4424 73.7216 21.1905 73.7216ZM32.8116 75.2273C31.9025 75.2273 31.1 74.9976 30.4039 74.5384C29.7079 74.0743 29.1634 73.4209 28.7704 72.5781C28.3774 71.7306 28.1809 70.7292 28.1809 69.5739C28.1809 68.428 28.3774 67.4337 28.7704 66.5909C29.1634 65.7481 29.7103 65.0971 30.411 64.6378C31.1118 64.1785 31.9215 63.9489 32.84 63.9489C33.5502 63.9489 34.1113 64.0672 34.5233 64.304C34.9399 64.536 35.2572 64.8011 35.475 65.0994C35.6975 65.393 35.8703 65.6345 35.9934 65.8239H36.1355V60.4545H37.8116V75H36.1923V73.3239H35.9934C35.8703 73.5227 35.6951 73.7737 35.4679 74.0767C35.2406 74.375 34.9163 74.6425 34.4949 74.8793C34.0734 75.1113 33.5124 75.2273 32.8116 75.2273ZM33.0389 73.7216C33.7112 73.7216 34.2794 73.5464 34.7434 73.196C35.2074 72.8409 35.5602 72.3509 35.8017 71.7259C36.0431 71.0961 36.1639 70.3693 36.1639 69.5455C36.1639 68.7311 36.0455 68.0185 35.8088 67.4077C35.572 66.7921 35.2217 66.3139 34.7576 65.973C34.2936 65.6274 33.7207 65.4545 33.0389 65.4545C32.3287 65.4545 31.7368 65.6368 31.2633 66.0014C30.7946 66.3613 30.4418 66.8513 30.2051 67.4716C29.9731 68.0871 29.8571 68.7784 29.8571 69.5455C29.8571 70.322 29.9754 71.0275 30.2122 71.6619C30.4537 72.2917 30.8088 72.7936 31.2775 73.1676C31.751 73.5369 32.3381 73.7216 33.0389 73.7216ZM45.688 75.2273C44.6369 75.2273 43.7302 74.9953 42.9679 74.5312C42.2103 74.0625 41.6255 73.4091 41.2136 72.571C40.8064 71.7282 40.6028 70.7481 40.6028 69.6307C40.6028 68.5133 40.8064 67.5284 41.2136 66.6761C41.6255 65.8191 42.1984 65.1515 42.9324 64.6733C43.671 64.1903 44.5327 63.9489 45.5176 63.9489C46.0858 63.9489 46.6468 64.0436 47.2008 64.233C47.7548 64.4223 48.2591 64.7301 48.7136 65.1562C49.1681 65.5777 49.5304 66.1364 49.8002 66.8324C50.0701 67.5284 50.2051 68.3854 50.2051 69.4034V70.1136H41.796V68.6648H48.5005C48.5005 68.0492 48.3774 67.5 48.1312 67.017C47.8897 66.5341 47.5441 66.1529 47.0943 65.8736C46.6492 65.5942 46.1236 65.4545 45.5176 65.4545C44.85 65.4545 44.2723 65.6203 43.7846 65.9517C43.3017 66.2784 42.93 66.7045 42.6696 67.2301C42.4092 67.7557 42.2789 68.3191 42.2789 68.9205V69.8864C42.2789 70.7102 42.421 71.4086 42.7051 71.9815C42.9939 72.5497 43.394 72.983 43.9054 73.2812C44.4167 73.5748 45.0109 73.7216 45.688 73.7216C46.1284 73.7216 46.5261 73.66 46.8812 73.5369C47.2411 73.4091 47.5512 73.2197 47.8116 72.9688C48.072 72.7131 48.2733 72.3958 48.4153 72.017L50.0346 72.4716C49.8642 73.0208 49.5777 73.5038 49.1752 73.9205C48.7728 74.3324 48.2756 74.6544 47.6838 74.8864C47.0919 75.1136 46.4267 75.2273 45.688 75.2273ZM58.5502 60.4545H60.3116V70.8523C60.3116 71.7803 60.1412 72.5687 59.8002 73.2173C59.4593 73.866 58.9788 74.3584 58.3585 74.6946C57.7382 75.0308 57.0067 75.1989 56.1639 75.1989C55.3684 75.1989 54.6606 75.0545 54.0403 74.7656C53.42 74.4721 52.9324 74.0554 52.5772 73.5156C52.2221 72.9759 52.0446 72.3343 52.0446 71.5909H53.7775C53.7775 72.0028 53.8793 72.3627 54.0829 72.6705C54.2913 72.9735 54.5753 73.2102 54.9352 73.3807C55.295 73.5511 55.7046 73.6364 56.1639 73.6364C56.6705 73.6364 57.1014 73.5298 57.4565 73.3168C57.8116 73.1037 58.0815 72.7912 58.2662 72.3793C58.4556 71.9626 58.5502 71.4536 58.5502 70.8523V60.4545ZM71.796 64.0909C71.7108 63.3712 71.3651 62.8125 70.7591 62.4148C70.153 62.017 69.4096 61.8182 68.5289 61.8182C67.885 61.8182 67.3216 61.9223 66.8386 62.1307C66.3604 62.339 65.9863 62.6255 65.7164 62.9901C65.4513 63.3546 65.3187 63.7689 65.3187 64.233C65.3187 64.6212 65.411 64.955 65.5957 65.2344C65.7851 65.509 66.0266 65.7386 66.3201 65.9233C66.6137 66.1032 66.9215 66.2524 67.2434 66.3707C67.5654 66.4844 67.8613 66.5767 68.1312 66.6477L69.6085 67.0455C69.9873 67.1449 70.4087 67.2822 70.8727 67.4574C71.3414 67.6326 71.7889 67.8717 72.215 68.1747C72.6459 68.473 73.001 68.8565 73.2804 69.3253C73.5597 69.794 73.6994 70.3693 73.6994 71.0511C73.6994 71.8371 73.4934 72.5473 73.0815 73.1818C72.6743 73.8163 72.0777 74.3205 71.2917 74.6946C70.5105 75.0687 69.5611 75.2557 68.4437 75.2557C67.402 75.2557 66.5001 75.0876 65.7377 74.7514C64.9802 74.4152 64.3836 73.9465 63.948 73.3452C63.5171 72.7438 63.2733 72.0455 63.2164 71.25H65.0346C65.082 71.7992 65.2666 72.2538 65.5886 72.6136C65.9153 72.9687 66.3272 73.2339 66.8244 73.4091C67.3263 73.5795 67.8661 73.6648 68.4437 73.6648C69.1161 73.6648 69.7198 73.5559 70.2548 73.3381C70.7898 73.1155 71.2136 72.8078 71.5261 72.4148C71.8386 72.017 71.9949 71.553 71.9949 71.0227C71.9949 70.5398 71.8599 70.1468 71.59 69.8438C71.3201 69.5407 70.965 69.2945 70.5247 69.1051C70.0843 68.9157 69.6085 68.75 69.0971 68.608L67.3074 68.0966C66.171 67.7699 65.2714 67.3035 64.6085 66.6974C63.9456 66.0914 63.6142 65.2983 63.6142 64.3182C63.6142 63.5038 63.8343 62.7936 64.2747 62.1875C64.7198 61.5767 65.3163 61.1032 66.0645 60.767C66.8173 60.4261 67.6577 60.2557 68.5858 60.2557C69.5233 60.2557 70.3566 60.4238 71.0858 60.7599C71.8149 61.0914 72.3926 61.5459 72.8187 62.1236C73.2496 62.7012 73.4769 63.357 73.5005 64.0909H71.796Z" fill="white"/>
<g clip-path="url(#clip0_19_145)">
<path fill-rule="evenodd" clip-rule="evenodd" d="M43.1855 39.6849C34.2077 39.6849 32.3255 35.5651 32.3255 32.1061C32.3255 31.778 32.5898 31.5137 32.918 31.5137H35.5703C35.862 31.5137 36.1081 31.7279 36.1536 32.015C36.5547 34.7175 37.7441 36.0801 43.1764 36.0801C47.5013 36.0801 49.3379 35.1048 49.3379 32.808C49.3379 31.4863 48.8138 30.5065 42.0964 29.8503C36.4772 29.2943 33.0046 28.0593 33.0046 23.5612C33.0046 19.4232 36.4954 16.9577 42.347 16.9577C48.9186 16.9577 52.1725 19.2364 52.5827 24.14C52.5964 24.3086 52.5371 24.4727 52.4232 24.5957C52.3092 24.7142 52.1497 24.7871 51.9857 24.7871H49.3242C49.0462 24.7871 48.8047 24.5912 48.75 24.3268C48.1074 21.4877 46.5579 20.5762 42.3379 20.5762C37.6165 20.5762 37.0697 22.2214 37.0697 23.4518C37.0697 24.9466 37.7168 25.3841 44.0879 26.2272C50.3952 27.0658 53.3893 28.2461 53.3893 32.6804C53.3893 37.1511 49.6615 39.7123 43.1582 39.7123L43.1855 39.6849ZM36.8464 56C36.0944 56 35.3516 55.8041 34.6953 55.4258L27.8457 51.3698C26.8203 50.7956 27.3216 50.5951 27.6589 50.4766C29.0215 49.9981 29.2995 49.8933 30.7578 49.0638C30.9128 48.9772 31.1133 49.0091 31.2682 49.1003L36.5319 52.222C36.7233 52.3268 36.9922 52.3268 37.1699 52.222L57.6914 40.3776C57.8828 40.2682 58.0059 40.0495 58.0059 39.8216V16.1465C58.0059 15.9095 57.8828 15.6999 57.6868 15.5814L37.1699 3.74611C36.9785 3.63218 36.7279 3.63218 36.5365 3.74611L16.0286 15.5814C15.8281 15.6953 15.7051 15.9141 15.7051 16.1419V39.8216C15.7051 40.0495 15.8281 40.2637 16.0241 40.3731L21.6432 43.6179C24.6921 45.1446 26.5605 43.3444 26.5605 41.5397V18.1654C26.5605 17.8327 26.8203 17.5729 27.1576 17.5729H29.7552C30.0788 17.5729 30.3477 17.8281 30.3477 18.1654V41.5488C30.3477 45.6185 28.1283 47.9518 24.2728 47.9518C23.0879 47.9518 22.1491 47.9518 19.5423 46.6667L14.151 43.5632C12.8203 42.793 12 41.3574 12 39.8216V16.1419C12 14.6016 12.8203 13.1615 14.151 12.4004L34.6908 0.551453C35.9896 -0.182271 37.7168 -0.182271 39.0065 0.551453L59.5234 12.405C60.8496 13.1706 61.6745 14.6016 61.6745 16.1465V39.8262C61.6745 41.362 60.8496 42.793 59.5234 43.5677L39.0065 55.4167C38.3503 55.7949 37.6029 55.9909 36.8464 55.9909V56Z" fill="#689F63"/>
</g>
<defs>
<clipPath id="clip0_19_145">
<rect width="49.6745" height="56" fill="white" transform="translate(12)"/>
</clipPath>
</defs>
</svg>
