<svg width="78" height="69" viewBox="0 0 78 69" fill="none" xmlns="http://www.w3.org/2000/svg">
<path d="M43.1858 24.9623C43.1858 22.7211 41.3119 20.9039 39 20.9039C36.6884 20.9039 34.8142 22.7211 34.8142 24.9623C34.8142 27.2039 36.6884 29.0209 39 29.0209C41.3119 29.0209 43.1858 27.2039 43.1858 24.9623Z" fill="#53C1DE"/>
<path fill-rule="evenodd" clip-rule="evenodd" d="M52.5944 17.4276C53.4783 13.945 54.5894 7.48668 50.6725 5.29712C46.7739 3.11711 41.7006 7.29442 39.0217 9.80184C36.3506 7.3194 31.1348 3.15995 27.2213 5.35647C23.3242 7.54379 24.526 13.895 25.4295 17.3995C21.7942 18.4006 15.5625 20.5569 15.5625 24.9623C15.5625 29.3553 21.7877 31.7012 25.4015 32.7014C24.4947 36.2253 23.3531 42.4857 27.2551 44.6682C31.1833 46.8643 36.3828 42.8039 39.0866 40.269C41.7827 42.7912 46.8072 46.8782 50.7066 44.6896C54.6181 42.4942 53.5994 36.1225 52.6958 32.5976C56.1989 31.5953 62.4375 29.3004 62.4375 24.9623C62.4375 20.5992 56.1723 18.4255 52.5944 17.4276ZM52.1503 30.7297C51.557 28.9087 50.7563 26.9723 49.7767 24.972C50.7117 23.0189 51.4814 21.1075 52.0581 19.2983C54.6811 20.0356 60.4352 21.7208 60.4352 24.9623C60.4352 28.2344 54.9134 29.9354 52.1503 30.7297ZM49.7031 43.0093C46.7938 44.6421 42.472 40.7337 40.4809 38.8764C41.8019 37.4756 43.1219 35.8472 44.4102 34.0389C46.6764 33.844 48.8172 33.5253 50.7588 33.0901C51.3947 35.5834 52.6253 41.3692 49.7031 43.0093ZM28.2557 42.9861C25.346 41.3593 26.6759 35.7728 27.3431 33.177C29.263 33.5889 31.3884 33.8851 33.66 34.0637C34.9567 35.8331 36.315 37.4595 37.6838 38.8839C35.9927 40.47 31.1789 44.6203 28.2557 42.9861ZM17.5648 24.9623C17.5648 21.6781 23.2845 20.0051 25.9672 19.2697C26.5539 21.1195 27.3234 23.0537 28.2519 25.0097C27.3113 26.9947 26.5309 28.9595 25.9388 30.8312C23.3808 30.1212 17.5648 28.2486 17.5648 24.9623ZM28.2245 7.03678C31.1461 5.39712 35.6792 9.39035 37.6186 11.1877C36.2569 12.6055 34.9111 14.2197 33.6255 15.9789C31.4209 16.177 29.3105 16.4951 27.3705 16.9214C26.6426 14.0948 25.3061 8.67467 28.2245 7.03678ZM45.8427 18.0892C47.3383 18.2722 48.7713 18.5156 50.1167 18.8134C49.7128 20.0687 49.2094 21.3814 48.6164 22.727C47.7569 21.1458 46.8342 19.5962 45.8427 18.0892ZM39.0223 12.5751C39.9459 13.5453 40.8709 14.6286 41.7809 15.8039C39.9352 15.7192 38.0864 15.7189 36.2406 15.8026C37.1514 14.6382 38.0844 13.5565 39.0223 12.5751ZM29.4008 22.7256C28.8176 21.3847 28.3187 20.0662 27.9113 18.793C29.2487 18.5028 30.675 18.2656 32.1609 18.0856C31.1666 19.5894 30.2455 21.1383 29.4008 22.7256ZM32.2036 31.9776C30.6686 31.8115 29.2207 31.5864 27.8837 31.3042C28.2976 30.0086 28.8075 28.6617 29.4031 27.2919C30.2594 28.8958 31.1945 30.4597 32.2036 31.9776ZM39.0778 37.4867C38.1288 36.4937 37.182 35.3954 36.2575 34.2142C38.1137 34.2848 39.9736 34.285 41.8297 34.2047C40.9169 35.4075 39.9952 36.5073 39.0778 37.4867ZM48.6355 27.2222C49.262 28.6068 49.7902 29.9464 50.2097 31.2201C48.8505 31.5209 47.3831 31.7631 45.837 31.9429C46.8359 30.4073 47.7733 28.8337 48.6355 27.2222ZM43.2927 32.1783C40.4533 32.375 37.5963 32.3728 34.7559 32.1943C33.142 29.9086 31.7053 27.5047 30.4652 25.009C31.6994 22.5186 33.1256 20.1194 34.7319 17.8372C37.5742 17.6289 40.4341 17.6283 43.2764 17.8384C44.8689 20.1205 46.293 22.5134 47.5558 24.9814C46.308 27.4706 44.8742 29.8747 43.2927 32.1783ZM49.6723 6.97906C52.5947 8.61334 51.2939 14.4176 50.6555 16.9415C48.7108 16.5064 46.5989 16.1826 44.388 15.9814C43.0998 14.2032 41.7653 12.5862 40.4256 11.1867C42.3898 9.35063 46.7783 5.36076 49.6723 6.97906Z" fill="#53C1DE"/>
<path d="M1.943 64V49.4545H6.85778C7.99414 49.4545 8.92691 49.6487 9.65607 50.0369C10.3852 50.4205 10.925 50.9484 11.2754 51.6207C11.6258 52.2931 11.801 53.0578 11.801 53.9148C11.801 54.7718 11.6258 55.5317 11.2754 56.1946C10.925 56.8575 10.3876 57.3783 9.66317 57.7571C8.93874 58.1312 8.01308 58.3182 6.88619 58.3182H2.90891V56.7273H6.82937C7.60588 56.7273 8.23088 56.6136 8.70437 56.3864C9.18259 56.1591 9.52823 55.8371 9.7413 55.4205C9.9591 54.9991 10.068 54.4972 10.068 53.9148C10.068 53.3324 9.9591 52.8234 9.7413 52.3878C9.5235 51.9522 9.17549 51.616 8.69727 51.3793C8.21905 51.1378 7.58694 51.017 6.80096 51.017H3.70437V64H1.943ZM8.7896 57.4659L12.3691 64H10.3237L6.80096 57.4659H8.7896ZM18.9654 64.2273C17.9142 64.2273 17.0075 63.9953 16.2452 63.5312C15.4876 63.0625 14.9029 62.4091 14.4909 61.571C14.0837 60.7282 13.8801 59.7481 13.8801 58.6307C13.8801 57.5133 14.0837 56.5284 14.4909 55.6761C14.9029 54.8191 15.4758 54.1515 16.2097 53.6733C16.9483 53.1903 17.8101 52.9489 18.7949 52.9489C19.3631 52.9489 19.9242 53.0436 20.4782 53.233C21.0321 53.4223 21.5364 53.7301 21.9909 54.1562C22.4455 54.5777 22.8077 55.1364 23.0776 55.8324C23.3475 56.5284 23.4824 57.3854 23.4824 58.4034V59.1136H15.0733V57.6648H21.7779C21.7779 57.0492 21.6548 56.5 21.4086 56.017C21.1671 55.5341 20.8214 55.1529 20.3716 54.8736C19.9266 54.5942 19.401 54.4545 18.7949 54.4545C18.1273 54.4545 17.5497 54.6203 17.062 54.9517C16.579 55.2784 16.2073 55.7045 15.9469 56.2301C15.6865 56.7557 15.5563 57.3191 15.5563 57.9205V58.8864C15.5563 59.7102 15.6983 60.4086 15.9824 60.9815C16.2712 61.5497 16.6713 61.983 17.1827 62.2812C17.6941 62.5748 18.2883 62.7216 18.9654 62.7216C19.4057 62.7216 19.8034 62.66 20.1586 62.5369C20.5184 62.4091 20.8285 62.2197 21.089 61.9688C21.3494 61.7131 21.5506 61.3958 21.6926 61.017L23.312 61.4716C23.1415 62.0208 22.8551 62.5038 22.4526 62.9205C22.0501 63.3324 21.553 63.6544 20.9611 63.8864C20.3693 64.1136 19.704 64.2273 18.9654 64.2273ZM29.2424 64.2557C28.5511 64.2557 27.9237 64.1255 27.3603 63.8651C26.7968 63.5999 26.3494 63.2188 26.0179 62.7216C25.6865 62.2197 25.5208 61.6136 25.5208 60.9034C25.5208 60.2784 25.6439 59.7718 25.8901 59.3835C26.1363 58.9905 26.4654 58.6828 26.8773 58.4602C27.2892 58.2377 27.7438 58.072 28.2409 57.9631C28.7428 57.8494 29.2471 57.7595 29.7537 57.6932C30.4166 57.608 30.954 57.544 31.3659 57.5014C31.7826 57.4541 32.0856 57.3759 32.275 57.267C32.4692 57.1581 32.5662 56.9687 32.5662 56.6989V56.642C32.5662 55.9413 32.3745 55.3968 31.9909 55.0085C31.6122 54.6203 31.0369 54.4261 30.2651 54.4261C29.4649 54.4261 28.8375 54.6013 28.383 54.9517C27.9284 55.3021 27.6088 55.6761 27.4242 56.0739L25.8333 55.5057C26.1174 54.8428 26.4962 54.3267 26.9696 53.9574C27.4479 53.5833 27.9687 53.3229 28.5321 53.1761C29.1003 53.0246 29.659 52.9489 30.2083 52.9489C30.5587 52.9489 30.9611 52.9915 31.4157 53.0767C31.8749 53.1572 32.3176 53.3253 32.7438 53.581C33.1747 53.8366 33.5321 54.2225 33.8162 54.7386C34.1003 55.2547 34.2424 55.946 34.2424 56.8125V64H32.5662V62.5227H32.481C32.3674 62.7595 32.178 63.0128 31.9128 63.2827C31.6477 63.5526 31.2949 63.7822 30.8546 63.9716C30.4142 64.161 29.8768 64.2557 29.2424 64.2557ZM29.498 62.75C30.1609 62.75 30.7196 62.6198 31.1742 62.3594C31.6335 62.099 31.9791 61.7628 32.2111 61.3509C32.4479 60.9389 32.5662 60.5057 32.5662 60.0511V58.517C32.4952 58.6023 32.339 58.6804 32.0975 58.7514C31.8607 58.8177 31.5861 58.8769 31.2736 58.929C30.9658 58.9763 30.6652 59.0189 30.3716 59.0568C30.0828 59.09 29.8484 59.1184 29.6685 59.142C29.2329 59.1989 28.8257 59.2912 28.4469 59.419C28.0729 59.5421 27.7698 59.7292 27.5378 59.9801C27.3105 60.2263 27.1969 60.5625 27.1969 60.9886C27.1969 61.571 27.4123 62.0114 27.8432 62.3097C28.2788 62.6032 28.8304 62.75 29.498 62.75ZM41.7335 64.2273C40.7108 64.2273 39.8301 63.9858 39.0914 63.5028C38.3528 63.0199 37.7846 62.3546 37.3869 61.5071C36.9892 60.6596 36.7903 59.6913 36.7903 58.6023C36.7903 57.4943 36.9939 56.5166 37.4011 55.669C37.813 54.8168 38.3859 54.1515 39.1199 53.6733C39.8585 53.1903 40.7202 52.9489 41.7051 52.9489C42.4721 52.9489 43.1634 53.0909 43.7789 53.375C44.3945 53.6591 44.8987 54.0568 45.2917 54.5682C45.6847 55.0795 45.9286 55.6761 46.0233 56.358H44.3471C44.2193 55.8608 43.9352 55.4205 43.4949 55.0369C43.0592 54.6487 42.4721 54.4545 41.7335 54.4545C41.0801 54.4545 40.5072 54.625 40.0147 54.9659C39.527 55.3021 39.1459 55.7779 38.8713 56.3935C38.6014 57.0043 38.4664 57.7216 38.4664 58.5455C38.4664 59.3883 38.599 60.1222 38.8642 60.7472C39.1341 61.3722 39.5128 61.8575 40.0005 62.2031C40.493 62.5488 41.0706 62.7216 41.7335 62.7216C42.1691 62.7216 42.5645 62.6458 42.9196 62.4943C43.2747 62.3428 43.5753 62.125 43.8216 61.8409C44.0678 61.5568 44.243 61.2159 44.3471 60.8182H46.0233C45.9286 61.4621 45.6942 62.0421 45.3201 62.5582C44.9508 63.0696 44.4608 63.4768 43.85 63.7798C43.2439 64.0781 42.5384 64.2273 41.7335 64.2273ZM53.2179 53.0909V54.5114H47.5645V53.0909H53.2179ZM49.2122 50.4773H50.8883V60.875C50.8883 61.3485 50.957 61.7036 51.0943 61.9403C51.2363 62.1723 51.4163 62.3286 51.6341 62.4091C51.8566 62.4848 52.091 62.5227 52.3372 62.5227C52.5218 62.5227 52.6734 62.5133 52.7917 62.4943C52.9101 62.4706 53.0048 62.4517 53.0758 62.4375L53.4167 63.9432C53.3031 63.9858 53.1445 64.0284 52.9409 64.071C52.7373 64.1184 52.4792 64.142 52.1667 64.142C51.6932 64.142 51.2292 64.0402 50.7747 63.8366C50.3249 63.633 49.9508 63.3229 49.6525 62.9062C49.359 62.4896 49.2122 61.964 49.2122 61.3295V50.4773ZM61.5346 49.4545H63.296V59.8523C63.296 60.7803 63.1255 61.5687 62.7846 62.2173C62.4437 62.866 61.9631 63.3584 61.3429 63.6946C60.7226 64.0308 59.9911 64.1989 59.1483 64.1989C58.3528 64.1989 57.6449 64.0545 57.0247 63.7656C56.4044 63.4721 55.9167 63.0554 55.5616 62.5156C55.2065 61.9759 55.0289 61.3343 55.0289 60.5909H56.7619C56.7619 61.0028 56.8637 61.3627 57.0673 61.6705C57.2756 61.9735 57.5597 62.2102 57.9196 62.3807C58.2794 62.5511 58.689 62.6364 59.1483 62.6364C59.6549 62.6364 60.0858 62.5298 60.4409 62.3168C60.796 62.1037 61.0659 61.7912 61.2505 61.3793C61.4399 60.9626 61.5346 60.4536 61.5346 59.8523V49.4545ZM74.7804 53.0909C74.6951 52.3712 74.3495 51.8125 73.7434 51.4148C73.1374 51.017 72.394 50.8182 71.5133 50.8182C70.8694 50.8182 70.3059 50.9223 69.823 51.1307C69.3448 51.339 68.9707 51.6255 68.7008 51.9901C68.4357 52.3546 68.3031 52.7689 68.3031 53.233C68.3031 53.6212 68.3954 53.955 68.5801 54.2344C68.7695 54.509 69.0109 54.7386 69.3045 54.9233C69.5981 55.1032 69.9058 55.2524 70.2278 55.3707C70.5498 55.4844 70.8457 55.5767 71.1156 55.6477L72.5929 56.0455C72.9717 56.1449 73.3931 56.2822 73.8571 56.4574C74.3258 56.6326 74.7733 56.8717 75.1994 57.1747C75.6303 57.473 75.9854 57.8565 76.2647 58.3253C76.5441 58.794 76.6838 59.3693 76.6838 60.0511C76.6838 60.8371 76.4778 61.5473 76.0659 62.1818C75.6587 62.8163 75.0621 63.3205 74.2761 63.6946C73.4949 64.0687 72.5455 64.2557 71.4281 64.2557C70.3864 64.2557 69.4844 64.0876 68.7221 63.7514C67.9645 63.4152 67.368 62.9465 66.9324 62.3452C66.5015 61.7438 66.2576 61.0455 66.2008 60.25H68.019C68.0663 60.7992 68.251 61.2538 68.573 61.6136C68.8997 61.9687 69.3116 62.2339 69.8088 62.4091C70.3107 62.5795 70.8504 62.6648 71.4281 62.6648C72.1004 62.6648 72.7041 62.5559 73.2392 62.3381C73.7742 62.1155 74.198 61.8078 74.5105 61.4148C74.823 61.017 74.9792 60.553 74.9792 60.0227C74.9792 59.5398 74.8443 59.1468 74.5744 58.8438C74.3045 58.5407 73.9494 58.2945 73.5091 58.1051C73.0687 57.9157 72.5929 57.75 72.0815 57.608L70.2917 57.0966C69.1554 56.7699 68.2557 56.3035 67.5929 55.6974C66.93 55.0914 66.5985 54.2983 66.5985 53.3182C66.5985 52.5038 66.8187 51.7936 67.2591 51.1875C67.7041 50.5767 68.3007 50.1032 69.0488 49.767C69.8017 49.4261 70.6421 49.2557 71.5701 49.2557C72.5076 49.2557 73.341 49.4238 74.0701 49.7599C74.7993 50.0914 75.377 50.5459 75.8031 51.1236C76.234 51.7012 76.4612 52.357 76.4849 53.0909H74.7804Z" fill="white"/>
</svg>
