<svg width="50" height="82" viewBox="0 0 50 82" fill="none" xmlns="http://www.w3.org/2000/svg">
<g clip-path="url(#clip0_19_187)">
<path fill-rule="evenodd" clip-rule="evenodd" d="M24.7944 0C38.4212 0 49.4662 5.17318 49.4662 11.5452C49.4662 17.922 38.4165 23.0905 24.7944 23.0905C11.1724 23.0905 0.122721 17.9173 0.122721 11.5452C0.122721 5.17318 11.1724 0 24.7944 0ZM0.122721 38.6242V47.4884C4.51237 63.0788 47.8802 60.0674 49.4709 46.6908V37.8359C47.3044 52.52 3.59196 53.5773 0.122721 38.6242ZM0 15.5479V24.2044C4.38965 39.4313 47.9982 37.3734 49.5936 24.313V15.6611C47.4224 30.0054 3.46924 30.1517 0 15.5479ZM0 26.7344V35.5986C4.38965 51.189 47.9982 49.0838 49.5936 35.7072V26.8524C47.4224 41.5365 3.46924 41.6875 0 26.7344Z" fill="white"/>
</g>
<path d="M15.0968 66.0909C15.0115 65.3712 14.6659 64.8125 14.0598 64.4148C13.4538 64.017 12.7104 63.8182 11.8297 63.8182C11.1858 63.8182 10.6223 63.9223 10.1394 64.1307C9.66116 64.339 9.28711 64.6255 9.01722 64.9901C8.75207 65.3546 8.6195 65.7689 8.6195 66.233C8.6195 66.6212 8.71183 66.955 8.89648 67.2344C9.08588 67.509 9.32736 67.7386 9.62092 67.9233C9.91448 68.1032 10.2222 68.2524 10.5442 68.3707C10.8662 68.4844 11.1621 68.5767 11.432 68.6477L12.9093 69.0455C13.2881 69.1449 13.7095 69.2822 14.1735 69.4574C14.6422 69.6326 15.0897 69.8717 15.5158 70.1747C15.9467 70.473 16.3018 70.8565 16.5811 71.3253C16.8605 71.794 17.0002 72.3693 17.0002 73.0511C17.0002 73.8371 16.7942 74.5473 16.3823 75.1818C15.9751 75.8163 15.3785 76.3205 14.5925 76.6946C13.8113 77.0687 12.8619 77.2557 11.7445 77.2557C10.7028 77.2557 9.80084 77.0876 9.03853 76.7514C8.28095 76.4152 7.68436 75.9465 7.24876 75.3452C6.81789 74.7438 6.57404 74.0455 6.51722 73.25H8.3354C8.38275 73.7992 8.56741 74.2538 8.88938 74.6136C9.21609 74.9687 9.62802 75.2339 10.1252 75.4091C10.6271 75.5795 11.1668 75.6648 11.7445 75.6648C12.4168 75.6648 13.0205 75.5559 13.5556 75.3381C14.0906 75.1155 14.5144 74.8078 14.8269 74.4148C15.1394 74.017 15.2956 73.553 15.2956 73.0227C15.2956 72.5398 15.1607 72.1468 14.8908 71.8438C14.6209 71.5407 14.2658 71.2945 13.8255 71.1051C13.3851 70.9157 12.9093 70.75 12.3979 70.608L10.6081 70.0966C9.47177 69.7699 8.57215 69.3035 7.90927 68.6974C7.24639 68.0914 6.91495 67.2983 6.91495 66.3182C6.91495 65.5038 7.13512 64.7936 7.57546 64.1875C8.02054 63.5767 8.61713 63.1032 9.36523 62.767C10.1181 62.4261 10.9585 62.2557 11.8865 62.2557C12.824 62.2557 13.6574 62.4238 14.3865 62.7599C15.1157 63.0914 15.6934 63.5459 16.1195 64.1236C16.5504 64.7012 16.7776 65.357 16.8013 66.0909H15.0968ZM25.1802 72.4545H27.112L28.7314 74.5852L29.1575 75.1534L31.5723 78.3636H29.6404L28.0495 76.233L27.6518 75.6932L25.1802 72.4545ZM32.1689 69.7273C32.1689 71.2614 31.8919 72.5871 31.3379 73.7045C30.7839 74.822 30.024 75.6837 29.0581 76.2898C28.0922 76.8958 26.9889 77.1989 25.7484 77.1989C24.5079 77.1989 23.4047 76.8958 22.4387 76.2898C21.4728 75.6837 20.7129 74.822 20.1589 73.7045C19.6049 72.5871 19.3279 71.2614 19.3279 69.7273C19.3279 68.1932 19.6049 66.8674 20.1589 65.75C20.7129 64.6326 21.4728 63.7708 22.4387 63.1648C23.4047 62.5587 24.5079 62.2557 25.7484 62.2557C26.9889 62.2557 28.0922 62.5587 29.0581 63.1648C30.024 63.7708 30.7839 64.6326 31.3379 65.75C31.8919 66.8674 32.1689 68.1932 32.1689 69.7273ZM30.4643 69.7273C30.4643 68.4678 30.2536 67.4048 29.8322 66.5384C29.4155 65.6719 28.8497 65.0161 28.1348 64.571C27.4245 64.1259 26.6291 63.9034 25.7484 63.9034C24.8677 63.9034 24.0699 64.1259 23.3549 64.571C22.6447 65.0161 22.0789 65.6719 21.6575 66.5384C21.2408 67.4048 21.0325 68.4678 21.0325 69.7273C21.0325 70.9867 21.2408 72.0497 21.6575 72.9162C22.0789 73.7827 22.6447 74.4384 23.3549 74.8835C24.0699 75.3286 24.8677 75.5511 25.7484 75.5511C26.6291 75.5511 27.4245 75.3286 28.1348 74.8835C28.8497 74.4384 29.4155 73.7827 29.8322 72.9162C30.2536 72.0497 30.4643 70.9867 30.4643 69.7273ZM35.1305 77V62.4545H36.8919V75.4375H43.6532V77H35.1305Z" fill="white"/>
<defs>
<clipPath id="clip0_19_187">
<rect width="49.5936" height="58" fill="white"/>
</clipPath>
</defs>
</svg>
