<svg width="118" height="57" viewBox="0 0 118 57" fill="none" xmlns="http://www.w3.org/2000/svg">
<g clip-path="url(#clip0_19_176)">
<path fill-rule="evenodd" clip-rule="evenodd" d="M59.1494 0C52.4445 0 48.253 3.33333 46.5747 10C49.0907 6.66803 52.0243 5.4182 55.3754 6.25051C57.291 6.72534 58.65 8.10479 60.1727 9.6316C62.6287 12.1203 65.4941 14.998 71.7241 14.998C78.429 14.998 82.6205 11.6646 84.2988 4.99795C81.7855 8.33265 78.852 9.58248 75.4982 8.74744C73.5825 8.27262 72.2235 6.89316 70.7008 5.36635C68.2366 2.86533 65.3835 0 59.1494 0ZM46.5747 14.998C39.8698 14.998 35.6783 18.3313 34 24.998C36.5188 21.666 39.4523 20.4162 42.8007 21.2485C44.7163 21.7233 46.0753 23.1027 47.598 24.6336C50.054 27.1183 52.9194 30 59.1494 30C65.8543 30 70.0458 26.6667 71.7241 20C69.2108 23.332 66.2773 24.5791 62.9235 23.7413C61.0078 23.2665 59.6488 21.887 58.1261 20.3602C55.6701 17.8715 52.8047 14.9898 46.5747 14.9898V14.998Z" fill="#06B6D4"/>
</g>
<path d="M1.32333 39.017V37.4545H12.2324V39.017H7.65856V52H5.89719V39.017H1.32333ZM16.4494 52.2557C15.7581 52.2557 15.1307 52.1255 14.5673 51.8651C14.0038 51.5999 13.5564 51.2188 13.225 50.7216C12.8935 50.2197 12.7278 49.6136 12.7278 48.9034C12.7278 48.2784 12.8509 47.7718 13.0971 47.3835C13.3433 46.9905 13.6724 46.6828 14.0843 46.4602C14.4963 46.2377 14.9508 46.072 15.448 45.9631C15.9499 45.8494 16.4541 45.7595 16.9608 45.6932C17.6236 45.608 18.161 45.544 18.573 45.5014C18.9896 45.4541 19.2927 45.3759 19.4821 45.267C19.6762 45.1581 19.7733 44.9687 19.7733 44.6989V44.642C19.7733 43.9413 19.5815 43.3968 19.198 43.0085C18.8192 42.6203 18.2439 42.4261 17.4721 42.4261C16.6719 42.4261 16.0446 42.6013 15.59 42.9517C15.1355 43.3021 14.8159 43.6761 14.6312 44.0739L13.0403 43.5057C13.3244 42.8428 13.7032 42.3267 14.1767 41.9574C14.6549 41.5833 15.1757 41.3229 15.7392 41.1761C16.3074 41.0246 16.8661 40.9489 17.4153 40.9489C17.7657 40.9489 18.1681 40.9915 18.6227 41.0767C19.082 41.1572 19.5247 41.3253 19.9508 41.581C20.3817 41.8366 20.7392 42.2225 21.0233 42.7386C21.3074 43.2547 21.4494 43.946 21.4494 44.8125V52H19.7733V50.5227H19.688C19.5744 50.7595 19.385 51.0128 19.1199 51.2827C18.8547 51.5526 18.502 51.7822 18.0616 51.9716C17.6213 52.161 17.0839 52.2557 16.4494 52.2557ZM16.7051 50.75C17.368 50.75 17.9267 50.6198 18.3812 50.3594C18.8405 50.099 19.1861 49.7628 19.4181 49.3509C19.6549 48.9389 19.7733 48.5057 19.7733 48.0511V46.517C19.7022 46.6023 19.546 46.6804 19.3045 46.7514C19.0678 46.8177 18.7931 46.8769 18.4806 46.929C18.1729 46.9763 17.8722 47.0189 17.5787 47.0568C17.2898 47.09 17.0555 47.1184 16.8755 47.142C16.4399 47.1989 16.0327 47.2912 15.6539 47.419C15.2799 47.5421 14.9769 47.7292 14.7449 47.9801C14.5176 48.2263 14.4039 48.5625 14.4039 48.9886C14.4039 49.571 14.6194 50.0114 15.0502 50.3097C15.4859 50.6032 16.0375 50.75 16.7051 50.75ZM24.5087 52V41.0909H26.1848V52H24.5087ZM25.361 39.2727C25.0343 39.2727 24.7525 39.1615 24.5158 38.9389C24.2838 38.7164 24.1678 38.4489 24.1678 38.1364C24.1678 37.8239 24.2838 37.5563 24.5158 37.3338C24.7525 37.1113 25.0343 37 25.361 37C25.6877 37 25.967 37.1113 26.199 37.3338C26.4358 37.5563 26.5542 37.8239 26.5542 38.1364C26.5542 38.4489 26.4358 38.7164 26.199 38.9389C25.967 39.1615 25.6877 39.2727 25.361 39.2727ZM30.9309 37.4545V52H29.2548V37.4545H30.9309ZM36.4725 52L33.1486 41.0909H34.91L37.2679 49.4432H37.3816L39.7111 41.0909H41.5009L43.802 49.4148H43.9157L46.2736 41.0909H48.035L44.7111 52H43.0634L40.677 43.6193H40.5066L38.1202 52H36.4725ZM50.2509 52V41.0909H51.927V52H50.2509ZM51.1032 39.2727C50.7765 39.2727 50.4947 39.1615 50.258 38.9389C50.026 38.7164 49.91 38.4489 49.91 38.1364C49.91 37.8239 50.026 37.5563 50.258 37.3338C50.4947 37.1113 50.7765 37 51.1032 37C51.4299 37 51.7092 37.1113 51.9412 37.3338C52.178 37.5563 52.2963 37.8239 52.2963 38.1364C52.2963 38.4489 52.178 38.7164 51.9412 38.9389C51.7092 39.1615 51.4299 39.2727 51.1032 39.2727ZM56.6731 45.4375V52H54.997V41.0909H56.6163V42.7955H56.7583C57.014 42.2415 57.4023 41.7964 57.9231 41.4602C58.444 41.1193 59.1163 40.9489 59.9402 40.9489C60.6788 40.9489 61.3251 41.1004 61.8791 41.4034C62.4331 41.7017 62.8639 42.1562 63.1717 42.767C63.4795 43.3731 63.6333 44.1402 63.6333 45.0682V52H61.9572V45.1818C61.9572 44.3248 61.7347 43.6572 61.2896 43.179C60.8445 42.696 60.2337 42.4545 59.4572 42.4545C58.9222 42.4545 58.444 42.5705 58.0225 42.8026C57.6059 43.0346 57.2768 43.3731 57.0353 43.8182C56.7939 44.2633 56.6731 44.803 56.6731 45.4375ZM70.8155 52.2273C69.9064 52.2273 69.1039 51.9976 68.4078 51.5384C67.7118 51.0743 67.1673 50.4209 66.7743 49.5781C66.3813 48.7306 66.1848 47.7292 66.1848 46.5739C66.1848 45.428 66.3813 44.4337 66.7743 43.5909C67.1673 42.7481 67.7142 42.0971 68.415 41.6378C69.1157 41.1785 69.9254 40.9489 70.8439 40.9489C71.5542 40.9489 72.1152 41.0672 72.5272 41.304C72.9438 41.536 73.2611 41.8011 73.4789 42.0994C73.7014 42.393 73.8742 42.6345 73.9973 42.8239H74.1394V37.4545H75.8155V52H74.1962V50.3239H73.9973C73.8742 50.5227 73.699 50.7737 73.4718 51.0767C73.2445 51.375 72.9202 51.6425 72.4988 51.8793C72.0774 52.1113 71.5163 52.2273 70.8155 52.2273ZM71.0428 50.7216C71.7151 50.7216 72.2833 50.5464 72.7473 50.196C73.2114 49.8409 73.5641 49.3509 73.8056 48.7259C74.0471 48.0961 74.1678 47.3693 74.1678 46.5455C74.1678 45.7311 74.0494 45.0185 73.8127 44.4077C73.5759 43.7921 73.2256 43.3139 72.7615 42.973C72.2975 42.6274 71.7246 42.4545 71.0428 42.4545C70.3326 42.4545 69.7407 42.6368 69.2672 43.0014C68.7985 43.3613 68.4457 43.8513 68.209 44.4716C67.977 45.0871 67.861 45.7784 67.861 46.5455C67.861 47.322 67.9793 48.0275 68.2161 48.6619C68.4576 49.2917 68.8127 49.7936 69.2814 50.1676C69.7549 50.5369 70.342 50.7216 71.0428 50.7216ZM91.0499 42H89.2885C89.1844 41.4934 89.0021 41.0483 88.7417 40.6648C88.486 40.2812 88.1735 39.9593 87.8042 39.6989C87.4396 39.4337 87.0347 39.2348 86.5897 39.1023C86.1446 38.9697 85.6806 38.9034 85.1976 38.9034C84.3169 38.9034 83.5191 39.1259 82.8042 39.571C82.0939 40.0161 81.5281 40.6719 81.1067 41.5384C80.69 42.4048 80.4817 43.4678 80.4817 44.7273C80.4817 45.9867 80.69 47.0497 81.1067 47.9162C81.5281 48.7827 82.0939 49.4384 82.8042 49.8835C83.5191 50.3286 84.3169 50.5511 85.1976 50.5511C85.6806 50.5511 86.1446 50.4848 86.5897 50.3523C87.0347 50.2197 87.4396 50.0232 87.8042 49.7628C88.1735 49.4976 88.486 49.1733 88.7417 48.7898C89.0021 48.4015 89.1844 47.9564 89.2885 47.4545H91.0499C90.9173 48.1979 90.6758 48.8632 90.3255 49.4503C89.9751 50.0374 89.5395 50.5369 89.0186 50.9489C88.4978 51.3561 87.9131 51.6662 87.2644 51.8793C86.6204 52.0923 85.9315 52.1989 85.1976 52.1989C83.9571 52.1989 82.8539 51.8958 81.888 51.2898C80.9221 50.6837 80.1621 49.822 79.6081 48.7045C79.0542 47.5871 78.7772 46.2614 78.7772 44.7273C78.7772 43.1932 79.0542 41.8674 79.6081 40.75C80.1621 39.6326 80.9221 38.7708 81.888 38.1648C82.8539 37.5587 83.9571 37.2557 85.1976 37.2557C85.9315 37.2557 86.6204 37.3622 87.2644 37.5753C87.9131 37.7884 88.4978 38.1009 89.0186 38.5128C89.5395 38.92 89.9751 39.4171 90.3255 40.0043C90.6758 40.5866 90.9173 41.2519 91.0499 42ZM101.851 41.0909C101.765 40.3712 101.42 39.8125 100.814 39.4148C100.208 39.017 99.4643 38.8182 98.5836 38.8182C97.9397 38.8182 97.3762 38.9223 96.8933 39.1307C96.4151 39.339 96.041 39.6255 95.7711 39.9901C95.506 40.3546 95.3734 40.7689 95.3734 41.233C95.3734 41.6212 95.4657 41.955 95.6504 42.2344C95.8398 42.509 96.0813 42.7386 96.3748 42.9233C96.6684 43.1032 96.9761 43.2524 97.2981 43.3707C97.6201 43.4844 97.916 43.5767 98.1859 43.6477L99.6632 44.0455C100.042 44.1449 100.463 44.2822 100.927 44.4574C101.396 44.6326 101.844 44.8717 102.27 45.1747C102.701 45.473 103.056 45.8565 103.335 46.3253C103.614 46.794 103.754 47.3693 103.754 48.0511C103.754 48.8371 103.548 49.5473 103.136 50.1818C102.729 50.8163 102.132 51.3205 101.346 51.6946C100.565 52.0687 99.6158 52.2557 98.4984 52.2557C97.4567 52.2557 96.5547 52.0876 95.7924 51.7514C95.0349 51.4152 94.4383 50.9465 94.0027 50.3452C93.5718 49.7438 93.3279 49.0455 93.2711 48.25H95.0893C95.1367 48.7992 95.3213 49.2538 95.6433 49.6136C95.97 49.9687 96.3819 50.2339 96.8791 50.4091C97.381 50.5795 97.9208 50.6648 98.4984 50.6648C99.1708 50.6648 99.7744 50.5559 100.309 50.3381C100.845 50.1155 101.268 49.8078 101.581 49.4148C101.893 49.017 102.05 48.553 102.05 48.0227C102.05 47.5398 101.915 47.1468 101.645 46.8438C101.375 46.5407 101.02 46.2945 100.579 46.1051C100.139 45.9157 99.6632 45.75 99.1518 45.608L97.362 45.0966C96.2257 44.7699 95.3261 44.3035 94.6632 43.6974C94.0003 43.0914 93.6689 42.2983 93.6689 41.3182C93.6689 40.5038 93.889 39.7936 94.3294 39.1875C94.7744 38.5767 95.371 38.1032 96.1191 37.767C96.872 37.4261 97.7124 37.2557 98.6404 37.2557C99.5779 37.2557 100.411 37.4238 101.14 37.7599C101.87 38.0914 102.447 38.5459 102.873 39.1236C103.304 39.7012 103.532 40.357 103.555 41.0909H101.851ZM114.605 41.0909C114.519 40.3712 114.174 39.8125 113.568 39.4148C112.962 39.017 112.218 38.8182 111.338 38.8182C110.694 38.8182 110.13 38.9223 109.647 39.1307C109.169 39.339 108.795 39.6255 108.525 39.9901C108.26 40.3546 108.127 40.7689 108.127 41.233C108.127 41.6212 108.22 41.955 108.404 42.2344C108.594 42.509 108.835 42.7386 109.129 42.9233C109.422 43.1032 109.73 43.2524 110.052 43.3707C110.374 43.4844 110.67 43.5767 110.94 43.6477L112.417 44.0455C112.796 44.1449 113.217 44.2822 113.681 44.4574C114.15 44.6326 114.597 44.8717 115.024 45.1747C115.454 45.473 115.81 45.8565 116.089 46.3253C116.368 46.794 116.508 47.3693 116.508 48.0511C116.508 48.8371 116.302 49.5473 115.89 50.1818C115.483 50.8163 114.886 51.3205 114.1 51.6946C113.319 52.0687 112.37 52.2557 111.252 52.2557C110.211 52.2557 109.309 52.0876 108.546 51.7514C107.789 51.4152 107.192 50.9465 106.757 50.3452C106.326 49.7438 106.082 49.0455 106.025 48.25H107.843C107.891 48.7992 108.075 49.2538 108.397 49.6136C108.724 49.9687 109.136 50.2339 109.633 50.4091C110.135 50.5795 110.675 50.6648 111.252 50.6648C111.925 50.6648 112.528 50.5559 113.063 50.3381C113.598 50.1155 114.022 49.8078 114.335 49.4148C114.647 49.017 114.803 48.553 114.803 48.0227C114.803 47.5398 114.669 47.1468 114.399 46.8438C114.129 46.5407 113.774 46.2945 113.333 46.1051C112.893 45.9157 112.417 45.75 111.906 45.608L110.116 45.0966C108.98 44.7699 108.08 44.3035 107.417 43.6974C106.754 43.0914 106.423 42.2983 106.423 41.3182C106.423 40.5038 106.643 39.7936 107.083 39.1875C107.528 38.5767 108.125 38.1032 108.873 37.767C109.626 37.4261 110.466 37.2557 111.394 37.2557C112.332 37.2557 113.165 37.4238 113.894 37.7599C114.624 38.0914 115.201 38.5459 115.627 39.1236C116.058 39.7012 116.285 40.357 116.309 41.0909H114.605Z" fill="white"/>
<defs>
<clipPath id="clip0_19_176">
<rect width="50.2988" height="30" fill="white" transform="translate(34)"/>
</clipPath>
</defs>
</svg>
