<svg width="103" height="73" viewBox="0 0 103 73" fill="none" xmlns="http://www.w3.org/2000/svg">
<g clip-path="url(#clip0_19_170)">
<path fill-rule="evenodd" clip-rule="evenodd" d="M27 25V0H77V50H27V25Z" fill="#007ACC"/>
<path fill-rule="evenodd" clip-rule="evenodd" d="M37.9619 25.0855V27.1241H44.4601V45.6258H49.0744V27.1241H55.5726V25.1221C55.5726 23.9991 55.5726 23.0835 55.5238 23.0591C55.5238 23.0225 51.5605 23.0103 46.7469 23.0103L37.9985 23.0469V25.0977L37.9619 25.0855ZM67.1733 22.9981C68.4469 23.2992 69.4235 23.8729 70.2983 24.7844C70.7622 25.2849 71.4499 26.1597 71.4987 26.3835C71.4987 26.4567 69.3381 27.9216 68.0238 28.7354C67.9749 28.772 67.7756 28.5604 67.5721 28.2349C66.9211 27.3112 66.2578 26.9084 65.2202 26.8352C63.7188 26.7334 62.7218 27.5228 62.7218 28.833C62.7218 29.2318 62.7951 29.4597 62.9456 29.7811C63.2834 30.4688 63.91 30.8798 65.8468 31.7302C69.4235 33.2683 70.9738 34.2814 71.9097 35.73C72.9717 37.3535 73.2077 39.9048 72.4956 41.8172C71.694 43.9046 69.745 45.3166 66.9577 45.7805C66.0828 45.931 64.0809 45.9066 63.145 45.7438C61.1471 45.3695 59.2306 44.3685 58.0588 43.0827C57.5949 42.5822 56.7078 41.2435 56.7607 41.1581L57.2368 40.857L59.1126 39.7705L60.5246 38.9445L60.8501 39.384C61.2611 40.035 62.1888 40.9099 62.7259 41.211C64.3494 42.0492 66.5264 41.9352 67.6006 40.9628C68.0645 40.5396 68.2638 40.0879 68.2638 39.4613C68.2638 38.8876 68.1743 38.6231 67.8895 38.1877C67.4907 37.6384 66.6891 37.1867 64.439 36.1898C61.8511 35.0912 60.7524 34.3913 59.7271 33.313C59.1411 32.662 58.604 31.6488 58.3517 30.8146C58.1646 30.0904 58.1035 28.3163 58.2785 27.6001C58.8156 25.1018 60.7036 23.3521 63.4054 22.8516C64.2803 22.6766 66.3433 22.7499 67.2059 22.9777L67.1733 22.9981Z" fill="white"/>
</g>
<path d="M1.41122 55.017V53.4545H12.3203V55.017H7.74645V68H5.98509V55.017H1.41122ZM14.641 72.0909C14.3569 72.0909 14.1036 72.0672 13.881 72.0199C13.6585 71.9773 13.5046 71.9347 13.4194 71.892L13.8455 70.4148C14.2527 70.5189 14.6126 70.5568 14.9251 70.5284C15.2376 70.5 15.5146 70.3603 15.756 70.1094C16.0022 69.8632 16.2272 69.4631 16.4308 68.9091L16.7433 68.0568L12.7092 57.0909H14.5273L17.5387 65.7841H17.6523L20.6637 57.0909H22.4819L17.8512 69.5909C17.6429 70.1544 17.3848 70.6207 17.0771 70.9901C16.7693 71.3641 16.4118 71.6411 16.0046 71.821C15.6022 72.0009 15.1476 72.0909 14.641 72.0909ZM24.6942 72.0909V57.0909H26.3136V58.8239H26.5124C26.6355 58.6345 26.806 58.393 27.0238 58.0994C27.2463 57.8011 27.5636 57.536 27.9755 57.304C28.3922 57.0672 28.9556 56.9489 29.6658 56.9489C30.5844 56.9489 31.3941 57.1785 32.0948 57.6378C32.7956 58.0971 33.3424 58.7481 33.7354 59.5909C34.1284 60.4337 34.3249 61.428 34.3249 62.5739C34.3249 63.7292 34.1284 64.7306 33.7354 65.5781C33.3424 66.4209 32.7979 67.0743 32.1019 67.5384C31.4059 67.9976 30.6033 68.2273 29.6942 68.2273C28.9935 68.2273 28.4324 68.1113 28.011 67.8793C27.5896 67.6425 27.2653 67.375 27.038 67.0767C26.8107 66.7737 26.6355 66.5227 26.5124 66.3239H26.3704V72.0909H24.6942ZM26.342 62.5455C26.342 63.3693 26.4627 64.0961 26.7042 64.7259C26.9457 65.3509 27.2984 65.8409 27.7624 66.196C28.2264 66.5464 28.7946 66.7216 29.467 66.7216C30.1677 66.7216 30.7525 66.5369 31.2212 66.1676C31.6947 65.7936 32.0498 65.2917 32.2866 64.6619C32.5281 64.0275 32.6488 63.322 32.6488 62.5455C32.6488 61.7784 32.5304 61.0871 32.2937 60.4716C32.0617 59.8513 31.7089 59.3613 31.2354 59.0014C30.7667 58.6368 30.1772 58.4545 29.467 58.4545C28.7852 58.4545 28.2122 58.6274 27.7482 58.973C27.2842 59.3139 26.9338 59.7921 26.6971 60.4077C26.4603 61.0185 26.342 61.7311 26.342 62.5455ZM41.4556 68.2273C40.4045 68.2273 39.4978 67.9953 38.7354 67.5312C37.9779 67.0625 37.3931 66.4091 36.9812 65.571C36.574 64.7282 36.3704 63.7481 36.3704 62.6307C36.3704 61.5133 36.574 60.5284 36.9812 59.6761C37.3931 58.8191 37.966 58.1515 38.6999 57.6733C39.4386 57.1903 40.3003 56.9489 41.2852 56.9489C41.8533 56.9489 42.4144 57.0436 42.9684 57.233C43.5224 57.4223 44.0266 57.7301 44.4812 58.1562C44.9357 58.5777 45.2979 59.1364 45.5678 59.8324C45.8377 60.5284 45.9727 61.3854 45.9727 62.4034V63.1136H37.5636V61.6648H44.2681C44.2681 61.0492 44.145 60.5 43.8988 60.017C43.6573 59.5341 43.3117 59.1529 42.8619 58.8736C42.4168 58.5942 41.8912 58.4545 41.2852 58.4545C40.6175 58.4545 40.0399 58.6203 39.5522 58.9517C39.0692 59.2784 38.6976 59.7045 38.4371 60.2301C38.1767 60.7557 38.0465 61.3191 38.0465 61.9205V62.8864C38.0465 63.7102 38.1886 64.4086 38.4727 64.9815C38.7615 65.5497 39.1616 65.983 39.6729 66.2812C40.1843 66.5748 40.7785 66.7216 41.4556 66.7216C41.896 66.7216 42.2937 66.66 42.6488 66.5369C43.0086 66.4091 43.3188 66.2197 43.5792 65.9688C43.8396 65.7131 44.0408 65.3958 44.1829 65.017L45.8022 65.4716C45.6317 66.0208 45.3453 66.5038 44.9428 66.9205C44.5404 67.3324 44.0432 67.6544 43.4513 67.8864C42.8595 68.1136 42.1942 68.2273 41.4556 68.2273ZM56.7042 57.0909C56.619 56.3712 56.2733 55.8125 55.6673 55.4148C55.0612 55.017 54.3178 54.8182 53.4371 54.8182C52.7932 54.8182 52.2298 54.9223 51.7468 55.1307C51.2686 55.339 50.8945 55.6255 50.6246 55.9901C50.3595 56.3546 50.2269 56.7689 50.2269 57.233C50.2269 57.6212 50.3192 57.955 50.5039 58.2344C50.6933 58.509 50.9348 58.7386 51.2283 58.9233C51.5219 59.1032 51.8297 59.2524 52.1516 59.3707C52.4736 59.4844 52.7695 59.5767 53.0394 59.6477L54.5167 60.0455C54.8955 60.1449 55.3169 60.2822 55.7809 60.4574C56.2496 60.6326 56.6971 60.8717 57.1232 61.1747C57.5541 61.473 57.9092 61.8565 58.1886 62.3253C58.4679 62.794 58.6076 63.3693 58.6076 64.0511C58.6076 64.8371 58.4016 65.5473 57.9897 66.1818C57.5825 66.8163 56.9859 67.3205 56.1999 67.6946C55.4187 68.0687 54.4693 68.2557 53.3519 68.2557C52.3103 68.2557 51.4083 68.0876 50.646 67.7514C49.8884 67.4152 49.2918 66.9465 48.8562 66.3452C48.4253 65.7438 48.1815 65.0455 48.1246 64.25H49.9428C49.9902 64.7992 50.1748 65.2538 50.4968 65.6136C50.8235 65.9687 51.2354 66.2339 51.7326 66.4091C52.2345 66.5795 52.7743 66.6648 53.3519 66.6648C54.0243 66.6648 54.628 66.5559 55.163 66.3381C55.698 66.1155 56.1218 65.8078 56.4343 65.4148C56.7468 65.017 56.9031 64.553 56.9031 64.0227C56.9031 63.5398 56.7681 63.1468 56.4982 62.8438C56.2283 62.5407 55.8732 62.2945 55.4329 62.1051C54.9925 61.9157 54.5167 61.75 54.0053 61.608L52.2156 61.0966C51.0792 60.7699 50.1796 60.3035 49.5167 59.6974C48.8538 59.0914 48.5224 58.2983 48.5224 57.3182C48.5224 56.5038 48.7425 55.7936 49.1829 55.1875C49.628 54.5767 50.2246 54.1032 50.9727 53.767C51.7255 53.4261 52.5659 53.2557 53.494 53.2557C54.4315 53.2557 55.2648 53.4238 55.994 53.7599C56.7231 54.0914 57.3008 54.5459 57.7269 55.1236C58.1578 55.7012 58.3851 56.357 58.4087 57.0909H56.7042ZM65.7081 68.2273C64.6854 68.2273 63.8047 67.9858 63.0661 67.5028C62.3274 67.0199 61.7592 66.3546 61.3615 65.5071C60.9638 64.6596 60.7649 63.6913 60.7649 62.6023C60.7649 61.4943 60.9685 60.5166 61.3757 59.669C61.7876 58.8168 62.3606 58.1515 63.0945 57.6733C63.8331 57.1903 64.6948 56.9489 65.6797 56.9489C66.4467 56.9489 67.138 57.0909 67.7536 57.375C68.3691 57.6591 68.8733 58.0568 69.2663 58.5682C69.6593 59.0795 69.9032 59.6761 69.9979 60.358H68.3217C68.1939 59.8608 67.9098 59.4205 67.4695 59.0369C67.0339 58.6487 66.4467 58.4545 65.7081 58.4545C65.0547 58.4545 64.4818 58.625 63.9893 58.9659C63.5017 59.3021 63.1205 59.7779 62.8459 60.3935C62.576 61.0043 62.4411 61.7216 62.4411 62.5455C62.4411 63.3883 62.5736 64.1222 62.8388 64.7472C63.1087 65.3722 63.4875 65.8575 63.9751 66.2031C64.4676 66.5488 65.0452 66.7216 65.7081 66.7216C66.1437 66.7216 66.5391 66.6458 66.8942 66.4943C67.2493 66.3428 67.55 66.125 67.7962 65.8409C68.0424 65.5568 68.2176 65.2159 68.3217 64.8182H69.9979C69.9032 65.4621 69.6688 66.0421 69.2947 66.5582C68.9254 67.0696 68.4354 67.4768 67.8246 67.7798C67.2185 68.0781 66.513 68.2273 65.7081 68.2273ZM72.4482 68V57.0909H74.0675V58.7386H74.1811C74.38 58.1989 74.7398 57.7609 75.2607 57.4247C75.7815 57.0885 76.3686 56.9205 77.022 56.9205C77.1451 56.9205 77.299 56.9228 77.4837 56.9276C77.6683 56.9323 77.808 56.9394 77.9027 56.9489V58.6534C77.8459 58.6392 77.7157 58.6179 77.5121 58.5895C77.3132 58.5563 77.1025 58.5398 76.88 58.5398C76.3497 58.5398 75.8762 58.651 75.4595 58.8736C75.0476 59.0914 74.7209 59.3944 74.4794 59.7827C74.2427 60.1662 74.1243 60.6042 74.1243 61.0966V68H72.4482ZM79.8896 68V57.0909H81.5657V68H79.8896ZM80.7418 55.2727C80.4151 55.2727 80.1334 55.1615 79.8967 54.9389C79.6647 54.7164 79.5487 54.4489 79.5487 54.1364C79.5487 53.8239 79.6647 53.5563 79.8967 53.3338C80.1334 53.1113 80.4151 53 80.7418 53C81.0685 53 81.3479 53.1113 81.5799 53.3338C81.8166 53.5563 81.935 53.8239 81.935 54.1364C81.935 54.4489 81.8166 54.7164 81.5799 54.9389C81.3479 55.1615 81.0685 55.2727 80.7418 55.2727ZM84.6357 72.0909V57.0909H86.255V58.8239H86.4538C86.5769 58.6345 86.7474 58.393 86.9652 58.0994C87.1877 57.8011 87.505 57.536 87.9169 57.304C88.3336 57.0672 88.897 56.9489 89.6072 56.9489C90.5258 56.9489 91.3355 57.1785 92.0362 57.6378C92.737 58.0971 93.2839 58.7481 93.6768 59.5909C94.0698 60.4337 94.2663 61.428 94.2663 62.5739C94.2663 63.7292 94.0698 64.7306 93.6768 65.5781C93.2839 66.4209 92.7393 67.0743 92.0433 67.5384C91.3473 67.9976 90.5447 68.2273 89.6357 68.2273C88.9349 68.2273 88.3738 68.1113 87.9524 67.8793C87.531 67.6425 87.2067 67.375 86.9794 67.0767C86.7521 66.7737 86.5769 66.5227 86.4538 66.3239H86.3118V72.0909H84.6357ZM86.2834 62.5455C86.2834 63.3693 86.4041 64.0961 86.6456 64.7259C86.8871 65.3509 87.2398 65.8409 87.7038 66.196C88.1679 66.5464 88.736 66.7216 89.4084 66.7216C90.1091 66.7216 90.6939 66.5369 91.1626 66.1676C91.6361 65.7936 91.9912 65.2917 92.228 64.6619C92.4695 64.0275 92.5902 63.322 92.5902 62.5455C92.5902 61.7784 92.4718 61.0871 92.2351 60.4716C92.0031 59.8513 91.6503 59.3613 91.1768 59.0014C90.7081 58.6368 90.1186 58.4545 89.4084 58.4545C88.7266 58.4545 88.1536 58.6274 87.6896 58.973C87.2256 59.3139 86.8752 59.7921 86.6385 60.4077C86.4018 61.0185 86.2834 61.7311 86.2834 62.5455ZM101.567 57.0909V58.5114H95.9141V57.0909H101.567ZM97.5618 54.4773H99.2379V64.875C99.2379 65.3485 99.3066 65.7036 99.4439 65.9403C99.5859 66.1723 99.7659 66.3286 99.9837 66.4091C100.206 66.4848 100.441 66.5227 100.687 66.5227C100.871 66.5227 101.023 66.5133 101.141 66.4943C101.26 66.4706 101.354 66.4517 101.425 66.4375L101.766 67.9432C101.653 67.9858 101.494 68.0284 101.29 68.071C101.087 68.1184 100.829 68.142 100.516 68.142C100.043 68.142 99.5788 68.0402 99.1243 67.8366C98.6745 67.633 98.3004 67.3229 98.0021 66.9062C97.7086 66.4896 97.5618 65.964 97.5618 65.3295V54.4773Z" fill="white"/>
<defs>
<clipPath id="clip0_19_170">
<rect width="50" height="50" fill="white" transform="translate(27)"/>
</clipPath>
</defs>
</svg>
